<?xml version="1.0" standalone="no"?>
<!DOCTYPE svg PUBLIC "-//W3C//DTD SVG 20010904//EN"
 "http://www.w3.org/TR/2001/REC-SVG-20010904/DTD/svg10.dtd">
<svg version="1.0" xmlns="http://www.w3.org/2000/svg"
 width="736.000000pt" height="1308.000000pt" viewBox="0 0 736.000000 1308.000000"
 preserveAspectRatio="xMidYMid meet">

<g transform="translate(0.000000,1308.000000) scale(0.100000,-0.100000)"
fill="#000000" stroke="none">
<path d="M0 13020 l0 -60 53 0 54 0 7 -177 c11 -303 10 -3413 -1 -3643 -8
-149 -7 -179 3 -338 l5 -94 37 -14 c149 -60 264 -136 354 -233 95 -103 168
-235 183 -331 15 -103 17 -155 5 -212 -10 -54 -10 -63 4 -74 20 -14 20 -33 1
-48 -19 -14 -26 -89 -13 -129 6 -18 28 -50 49 -72 22 -23 39 -46 39 -53 0 -7
5 -12 11 -12 6 0 8 7 5 16 -4 9 -3 32 0 51 6 33 9 35 37 29 17 -3 38 -13 47
-21 15 -14 18 -14 30 0 7 8 26 15 41 15 23 0 32 -6 40 -27 l10 -27 30 31 c21
20 32 43 36 71 6 42 5 42 -26 42 -24 0 -31 4 -31 20 0 20 5 23 50 24 23 1 25
5 32 67 14 143 86 204 175 149 34 -20 37 -27 27 -54 -5 -14 -8 -15 -18 -2 -22
28 -52 28 -84 1 -41 -34 -53 -76 -54 -187 -1 -79 2 -100 21 -138 13 -25 29
-55 35 -67 16 -32 29 -28 21 6 -3 16 -6 53 -6 82 0 30 -9 83 -21 119 -22 72
-16 113 20 122 52 14 96 -47 75 -103 -9 -23 -9 -29 0 -26 15 5 25 40 27 97 1
41 2 43 12 20 17 -44 19 -71 8 -127 -10 -46 -17 -58 -46 -75 -39 -23 -40 -34
-20 -121 19 -79 31 -90 62 -54 13 15 24 40 25 55 0 15 3 21 6 15 2 -7 10 -13
16 -13 8 0 7 4 -1 12 -7 7 -30 11 -52 9 -33 -2 -40 1 -40 16 0 41 47 57 78 26
9 -9 17 -19 18 -22 0 -3 3 -13 6 -21 8 -19 4 -87 -6 -121 -4 -15 -18 -32 -32
-39 -13 -8 -24 -17 -24 -22 0 -5 19 -28 43 -51 49 -49 148 -100 239 -123 58
-15 68 -15 133 0 102 24 103 25 81 83 -47 124 -44 173 13 173 42 0 48 -17 17
-49 -29 -30 -35 -81 -12 -100 22 -19 45 -2 72 54 l26 52 -21 49 c-68 162 -30
303 72 265 36 -14 34 -31 -2 -31 -32 0 -61 -30 -61 -63 0 -14 6 -18 24 -15 30
4 56 -18 56 -48 0 -12 5 -26 10 -29 6 -3 10 -22 10 -42 0 -28 -7 -42 -30 -62
-29 -25 -53 -91 -33 -91 27 0 73 92 92 185 l9 40 1 -38 c1 -48 40 -91 76 -84
29 5 60 -24 52 -48 -8 -20 -36 -19 -59 1 -42 38 -63 -37 -34 -121 15 -42 53
-92 63 -82 3 3 0 20 -6 38 -24 71 -3 112 46 90 18 -8 29 -9 37 -1 17 17 44 11
65 -16 l20 -25 21 42 c27 53 18 63 -58 64 -51 0 -57 2 -60 23 -4 26 18 38 45
23 14 -7 26 -6 44 4 46 27 51 28 60 14 4 -7 11 -30 14 -51 4 -22 20 -52 37
-70 l31 -33 9 24 8 24 23 -21 c29 -27 45 -28 73 -1 16 15 27 18 41 12 10 -5
31 -8 46 -7 24 2 28 0 25 -19 -2 -17 -29 -34 -117 -78 -105 -51 -145 -82 -178
-135 -11 -19 -11 -19 -26 1 -14 18 -16 18 -22 3 -4 -9 -4 -22 0 -28 4 -6 -2
-48 -13 -93 -32 -130 -43 -178 -51 -232 -8 -48 -31 -112 -47 -127 -4 -4 -13 0
-20 10 -9 12 -13 54 -14 139 0 67 -4 124 -8 127 -5 3 -9 -50 -10 -116 -2 -123
-9 -148 -42 -148 -25 0 -34 -29 -15 -50 8 -9 15 -21 15 -27 0 -5 10 -18 22
-29 21 -19 21 -19 15 4 -8 32 1 52 24 52 26 0 25 -50 -2 -155 -11 -44 -21
-117 -23 -163 -2 -45 -7 -86 -11 -90 -4 -4 -5 7 -2 25 4 18 3 35 -2 37 -5 3
-6 26 -3 51 5 48 -4 57 -31 27 -21 -23 -22 -56 -2 -72 35 -29 -3 -124 -45
-113 -11 3 -20 10 -20 16 0 8 -3 8 -11 0 -20 -20 -14 -314 7 -356 8 -15 12
-32 9 -37 -3 -5 -10 -46 -16 -91 -5 -45 -16 -95 -23 -113 -12 -28 -13 -16 -15
109 -1 108 -6 157 -22 215 -15 53 -22 112 -25 200 -2 69 -3 128 -4 133 0 4
-13 7 -28 7 -20 0 -32 -7 -40 -22 -7 -16 -10 -136 -10 -368 1 -364 7 -414 46
-408 18 3 19 -3 9 -65 -5 -31 -4 -37 7 -28 8 6 17 26 21 44 8 32 8 32 12 5 5
-29 -21 -88 -38 -88 -6 0 -7 5 -4 10 3 6 0 10 -8 10 -23 0 -29 -27 -33 -133
-2 -58 -8 -105 -15 -113 -23 -27 -29 7 -29 161 0 156 -10 204 -30 150 -18 -50
-53 -115 -61 -115 -5 0 -16 -11 -24 -24 -14 -21 -17 -70 -20 -303 -2 -153 -5
-285 -6 -293 -4 -40 5 -121 16 -130 16 -13 81 6 106 31 14 14 19 33 19 78 0
33 4 62 8 65 5 3 6 25 3 48 -8 54 -3 98 11 98 6 0 9 -25 7 -62 -3 -77 10 -178
25 -197 15 -19 18 -81 3 -85 -33 -9 -216 -70 -242 -82 -16 -7 -46 -17 -65 -23
-45 -12 -264 -88 -309 -107 -32 -13 -33 -16 -29 -57 3 -23 15 -64 26 -91 l22
-48 40 7 c26 4 40 3 40 -4 0 -24 39 -9 74 29 48 52 76 53 76 5 0 -24 5 -35 14
-35 22 0 27 15 17 44 -8 21 -8 24 5 19 10 -4 31 10 59 37 47 46 75 49 75 6 0
-28 17 -43 32 -28 7 7 6 17 -1 31 -10 18 -9 21 10 21 13 0 38 17 59 40 46 50
60 51 60 4 0 -28 3 -35 18 -32 9 2 18 13 20 25 3 23 30 39 43 26 4 -4 10 -30
13 -58 l6 -50 -67 -32 c-102 -48 -176 -80 -298 -129 -60 -24 -115 -48 -120
-52 -13 -9 -35 -93 -35 -132 0 -26 5 -30 43 -40 80 -21 112 -33 119 -44 5 -7
16 -5 37 7 16 9 36 17 45 17 9 0 16 5 16 10 0 6 8 10 17 10 16 0 134 33 178
50 11 5 47 17 80 27 33 11 67 23 76 27 13 6 19 -2 28 -38 13 -52 14 -77 4 -74
-5 1 -24 -5 -44 -14 -20 -9 -72 -28 -115 -43 -73 -25 -154 -61 -154 -68 0 -2
14 -19 30 -38 40 -44 63 -42 197 23 57 27 110 47 118 45 20 -8 51 -84 59 -147
6 -46 21 -90 44 -134 3 -5 -1 -6 -9 -4 -8 3 -22 -4 -32 -15 -9 -11 -17 -17
-17 -13 0 3 -23 -5 -51 -20 -29 -14 -59 -24 -69 -21 -9 2 -34 -4 -56 -15 -50
-25 -115 -48 -135 -48 -8 0 -28 -13 -45 -29 -16 -15 -42 -31 -59 -34 -16 -4
-45 -9 -62 -13 -22 -4 -33 -2 -33 5 0 6 -5 11 -10 11 -6 0 -10 -6 -9 -12 3
-29 -3 -38 -33 -51 -52 -23 -67 -27 -84 -20 -13 5 -11 10 13 29 15 13 36 23
46 24 9 0 17 3 17 8 0 14 66 43 83 36 12 -4 17 -1 17 9 0 9 12 24 27 34 32 22
103 93 103 103 0 8 -25 20 -41 20 -5 0 -9 -6 -9 -13 0 -15 -40 -37 -68 -38
-14 0 -13 -2 3 -9 16 -7 13 -8 -15 -8 -36 1 -73 -14 -98 -39 -7 -7 -20 -13
-29 -13 -8 0 -26 -9 -40 -20 -14 -11 -34 -20 -44 -20 -11 0 -19 -7 -19 -15 0
-10 -10 -15 -30 -15 -18 0 -39 -10 -54 -25 -28 -28 -42 -31 -49 -12 -2 7 -17
-1 -38 -24 -19 -19 -42 -38 -52 -42 -9 -3 -17 -11 -17 -17 0 -6 -10 -8 -24 -4
-17 4 -29 -1 -43 -15 -17 -18 -21 -19 -46 -6 -15 8 -29 10 -32 4 -4 -5 0 -9 8
-9 10 0 13 -7 10 -20 -6 -23 -18 -26 -27 -7 -5 9 -7 9 -12 -1 -4 -9 -9 -10
-19 -2 -10 8 -15 8 -21 -1 -4 -7 -2 -15 4 -17 7 -2 12 -10 12 -18 0 -18 -38
-13 -52 7 -7 10 -8 7 -4 -12 4 -19 0 -31 -14 -44 -18 -16 -25 -14 -21 8 0 4
-4 7 -9 7 -6 0 -10 -8 -8 -17 2 -12 -3 -17 -13 -15 -9 1 -24 -7 -34 -18 -18
-20 -45 -27 -45 -12 0 4 5 13 12 20 9 9 9 12 0 12 -7 0 -12 -4 -12 -10 0 -5
-7 -10 -15 -10 -8 0 -15 -5 -15 -11 0 -17 -27 -39 -49 -39 -12 0 -21 -6 -21
-15 0 -8 -5 -15 -11 -15 -6 0 -8 9 -4 20 5 15 3 18 -9 14 -8 -3 -18 -15 -22
-27 -11 -36 -57 -67 -69 -46 -4 5 1 12 9 15 9 3 16 13 16 22 0 13 -3 12 -20
-3 -11 -10 -20 -25 -20 -33 0 -8 -6 -12 -15 -8 -10 4 -15 -1 -15 -14 0 -15 -7
-20 -29 -20 -17 0 -33 5 -36 11 -4 6 -18 -1 -34 -19 -39 -40 -56 -45 -57 -16
-1 13 2 24 7 24 5 0 9 5 9 11 0 6 -13 1 -29 -10 -16 -12 -34 -21 -40 -21 -6 0
-11 -5 -11 -11 0 -6 -9 -8 -20 -4 -13 4 -20 2 -20 -8 0 -9 11 -13 37 -10 33 2
35 1 17 -10 -10 -7 -31 -14 -47 -15 -21 -1 -27 3 -27 18 0 11 -5 20 -11 20 -6
0 -9 -7 -5 -15 3 -8 -2 -19 -12 -24 -16 -10 -16 -10 1 -11 9 0 17 -6 17 -14 0
-22 -18 -29 -28 -11 -5 10 -15 13 -25 9 -13 -5 -15 -10 -7 -20 9 -10 6 -12
-14 -10 -14 1 -29 5 -32 9 -11 11 -34 -5 -34 -23 0 -20 -33 -37 -38 -21 -5 16
-23 14 -20 -2 2 -7 0 -12 -4 -12 -4 0 -14 -9 -22 -20 -12 -16 -17 -18 -27 -7
-11 10 -10 12 5 12 9 0 15 4 11 9 -3 6 -14 9 -24 8 -17 -1 -18 -15 -20 -212
-1 -117 1 -224 5 -239 6 -24 10 -27 35 -22 17 3 29 1 33 -7 2 -7 5 -4 5 5 1
11 -9 20 -24 24 -28 7 -29 8 -15 35 12 22 36 25 43 7 4 -10 6 -10 6 0 1 6 9
12 19 13 14 0 14 2 -3 9 -19 7 -18 9 8 19 16 6 35 11 43 11 8 0 14 7 14 15 0
8 9 15 19 15 11 0 27 3 37 7 12 4 15 3 10 -5 -4 -7 -1 -12 8 -12 9 0 16 7 16
15 0 8 7 15 16 15 9 0 18 9 21 20 3 11 12 20 19 20 8 0 14 4 14 9 0 4 27 18
60 30 47 17 60 27 60 43 0 18 4 20 33 14 25 -4 28 -3 14 5 -21 12 -22 29 -2
29 8 0 15 -4 15 -10 0 -5 5 -10 10 -10 6 0 10 11 10 25 0 14 5 25 10 25 6 0
10 -4 10 -10 0 -5 9 -10 19 -10 11 0 23 5 26 10 3 6 -1 10 -9 10 -9 0 -16 5
-16 10 0 6 7 10 15 10 8 0 19 9 25 20 6 11 15 20 21 20 6 0 25 10 42 23 18 12
43 22 57 22 18 0 24 5 22 17 -2 12 9 20 38 29 22 7 40 16 40 20 0 4 14 10 30
14 17 4 30 13 30 20 0 7 20 21 45 32 25 10 45 21 45 26 0 4 5 7 11 7 5 0 7 -4
4 -10 -3 -6 1 -7 9 -4 9 3 16 10 16 14 0 4 15 13 32 21 18 7 49 25 68 39 19
15 41 25 48 22 8 -2 31 10 52 27 21 17 44 31 49 31 6 0 11 4 11 10 0 5 7 7 16
3 10 -4 20 0 26 10 5 10 14 17 19 17 14 0 39 26 39 39 0 6 5 11 10 11 6 0 10
-4 10 -10 0 -19 28 -10 63 23 20 17 43 37 50 44 19 15 76 30 107 28 13 -1 38
6 55 16 16 11 24 19 18 19 -7 0 -13 4 -13 8 0 13 132 -6 146 -20 20 -21 26
-131 27 -510 1 -197 4 -358 7 -358 3 1 21 14 40 30 19 17 44 30 55 30 12 0 25
3 29 7 4 5 13 8 19 8 7 0 19 15 27 32 8 18 18 33 22 33 4 0 28 20 54 45 26 25
60 53 75 61 16 8 29 18 29 23 0 5 10 12 23 15 22 6 61 39 163 137 28 27 60 50
70 52 10 1 30 9 44 18 14 8 34 19 44 25 34 18 42 40 27 76 -31 75 -36 142 -17
245 10 54 22 122 27 152 10 60 64 176 90 195 10 6 64 109 122 227 105 218 182
349 204 349 7 0 10 7 7 15 -4 10 0 13 15 10 12 -2 21 0 21 6 0 5 7 9 15 9 11
0 14 7 9 26 -5 20 -2 26 15 31 13 3 21 13 21 27 0 21 4 22 69 20 64 -2 69 -1
80 22 14 31 14 44 1 44 -5 0 -10 -11 -10 -26 0 -23 -3 -25 -42 -21 -35 3 -43
8 -49 30 -5 20 -3 26 12 30 10 3 19 12 19 21 0 9 5 16 11 16 5 0 7 5 4 10 -12
19 6 10 30 -16 21 -23 26 -24 31 -10 7 18 39 22 49 6 3 -6 17 -7 31 -4 30 8
73 -27 75 -60 1 -17 2 -18 6 -3 6 21 31 23 29 1 -1 -12 12 -16 56 -18 32 -1
59 2 61 7 2 6 126 10 343 10 186 -1 464 3 618 8 262 8 280 7 315 -11 20 -10
45 -27 57 -38 11 -11 30 -23 42 -26 11 -4 34 -22 51 -41 17 -19 34 -35 39 -35
5 0 19 -9 32 -20 13 -11 29 -20 36 -20 8 0 11 -6 7 -17 -4 -11 -3 -14 5 -9 13
8 172 -71 172 -86 0 -7 5 -6 14 1 12 10 19 8 35 -8 12 -12 26 -21 32 -21 6 0
32 -18 57 -41 36 -31 53 -40 74 -37 53 8 100 -76 111 -202 4 -39 16 -73 40
-115 20 -33 50 -86 68 -118 17 -31 42 -67 54 -80 27 -27 75 -126 75 -154 0
-11 11 -35 25 -54 56 -79 59 -88 63 -219 l3 -125 -27 37 c-46 64 -52 44 -17
-56 24 -71 14 -162 -45 -392 -17 -66 -34 -154 -38 -195 -3 -41 -12 -99 -19
-129 -8 -30 -21 -113 -30 -185 -31 -253 -87 -582 -125 -745 -16 -69 -36 -159
-45 -200 -8 -41 -26 -122 -40 -180 -25 -106 -49 -223 -86 -425 -11 -60 -22
-122 -25 -137 l-6 -28 961 0 961 0 0 2886 0 2885 -27 -19 c-40 -28 -94 -35
-120 -17 -17 12 -22 29 -28 87 -14 143 -15 146 -34 133 -6 -3 -11 -34 -11 -68
0 -34 -5 -91 -12 -127 -19 -104 -14 -130 47 -243 30 -57 55 -112 55 -123 0
-20 -6 -12 -41 53 -10 19 -42 37 -61 34 -5 -1 -8 3 -8 8 0 5 -9 11 -20 14 -11
3 -20 13 -20 22 0 9 9 19 20 22 21 6 25 13 12 29 -4 5 -16 35 -27 67 -10 31
-24 62 -32 68 -7 6 -13 20 -13 30 0 10 -4 20 -9 23 -4 3 -11 20 -15 38 -5 27
-9 30 -17 18 -9 -12 -10 -10 -6 8 3 14 0 22 -8 22 -8 0 -11 7 -8 19 3 10 0 22
-6 25 -6 4 -11 16 -11 27 0 10 -4 19 -10 19 -5 0 -10 7 -10 16 0 10 -6 14 -14
11 -9 -4 -12 0 -9 13 3 10 0 21 -6 24 -6 4 -11 16 -11 26 0 10 -6 25 -13 32
-8 7 -19 23 -26 36 -6 12 -30 31 -52 42 -42 22 -54 42 -71 125 -12 62 -41 158
-49 165 -3 3 -9 23 -13 45 -8 43 -30 87 -60 122 -26 30 -35 21 -29 -27 4 -26
2 -40 -6 -40 -6 0 -11 7 -11 15 0 8 -15 29 -33 47 -31 32 -43 59 -66 160 -11
49 -66 148 -82 148 -5 0 -9 9 -9 19 0 11 -4 23 -10 26 -5 3 -10 13 -10 20 0
18 -47 122 -59 129 -5 3 -12 22 -15 41 -4 20 -11 33 -15 30 -5 -2 -19 23 -31
56 -16 43 -30 63 -47 70 -13 5 -26 15 -29 23 -3 8 -14 16 -24 19 -10 3 -28 22
-39 43 -11 22 -34 52 -51 68 -34 33 -39 48 -12 39 14 -5 13 -3 -3 10 -11 8
-23 13 -27 11 -5 -3 -8 2 -8 10 0 9 -4 16 -10 16 -5 0 -10 7 -10 15 0 8 -14
28 -30 43 -17 16 -30 34 -30 41 0 15 -43 31 -66 25 -11 -3 -46 2 -79 10 -32 9
-76 16 -96 16 -66 0 -64 -6 -63 178 l0 167 25 -3 c13 -1 71 -21 127 -43 166
-65 147 -47 -83 76 -38 20 -80 42 -92 49 -18 9 -23 21 -25 61 -3 43 -6 50 -25
53 -13 2 -23 -1 -23 -7 0 -6 -4 -11 -10 -11 -5 0 -10 18 -10 39 0 34 4 40 30
50 32 11 35 17 20 41 -7 11 -4 17 8 22 11 5 7 7 -13 5 -28 -2 -30 0 -33 39 -2
34 0 42 16 46 13 4 22 18 26 41 5 27 12 36 29 39 17 2 22 10 22 33 0 50 14 56
70 28 51 -26 197 -124 296 -199 30 -23 80 -56 110 -73 l54 -31 -35 31 c-19 17
-57 46 -85 65 -81 55 -99 68 -114 82 -21 21 -161 124 -218 162 -39 26 -56 45
-64 70 -6 22 -9 121 -7 268 2 127 0 232 -4 232 -4 0 -6 9 -5 20 1 11 5 20 10
20 5 0 64 -54 130 -119 191 -187 255 -248 352 -334 116 -104 139 -136 141
-196 0 -25 2 -51 2 -58 1 -6 21 -22 45 -36 45 -27 86 -68 106 -104 6 -13 28
-27 51 -33 24 -7 57 -28 83 -53 57 -58 74 -70 81 -58 9 14 -43 71 -65 71 -10
0 -19 5 -19 10 0 6 -10 24 -22 41 -22 30 -35 99 -18 99 15 0 64 -24 72 -35 17
-22 6 -25 -19 -5 -15 12 -29 17 -31 11 -4 -11 27 -61 38 -61 4 0 30 -18 59
-41 40 -32 51 -47 51 -70 0 -19 -5 -29 -15 -29 -21 0 -19 -17 6 -51 13 -18 29
-29 45 -29 25 0 30 16 15 55 -9 21 18 77 34 72 5 -2 15 -30 21 -63 11 -50 10
-61 -3 -76 -19 -22 -10 -48 17 -48 24 0 43 40 58 129 11 59 30 90 56 91 6 0
23 12 38 27 27 26 28 26 43 7 11 -13 14 -31 10 -57 -3 -21 1 -57 9 -80 10 -32
12 -63 6 -129 -5 -48 -11 -91 -14 -96 -3 -5 2 -33 10 -63 10 -37 15 -101 15
-206 -1 -84 6 -234 13 -335 11 -145 22 -693 17 -818 -5 -101 -1 -143 18 -185
11 -26 24 -44 29 -41 4 2 7 67 6 143 -1 76 -3 298 -3 493 -1 195 -6 381 -10
412 -4 33 -4 64 2 74 6 11 5 19 -4 25 -8 5 -9 9 -3 9 7 0 12 17 12 38 1 20 7
53 15 72 13 30 13 38 1 61 -7 15 -15 52 -16 83 -2 31 -6 56 -10 56 -14 0 -9
76 7 114 17 41 29 45 45 16 15 -28 37 -25 53 6 17 32 81 58 97 39 24 -28 30
-135 36 -575 4 -297 11 -477 18 -499 36 -112 36 -117 36 2477 0 2231 -2 2521
-15 2526 -8 3 -15 12 -15 21 0 8 7 15 15 15 13 0 15 70 15 570 l0 570 -3680 0
-3680 0 0 -60z m5523 -143 c20 -45 42 -97 48 -114 9 -26 14 -31 27 -24 13 7
26 -12 72 -108 31 -64 66 -141 78 -171 65 -169 186 -456 222 -528 23 -45 48
-101 56 -125 8 -23 30 -69 48 -102 18 -33 34 -64 36 -70 10 -36 49 -121 79
-171 21 -34 27 -145 36 -649 3 -159 10 -411 16 -560 5 -148 9 -468 9 -709 -1
-350 2 -441 12 -448 7 -5 40 -8 73 -7 33 1 71 -1 84 -6 27 -8 71 -52 70 -69 0
-7 -2 -7 -5 -1 -3 7 -44 9 -113 7 -104 -3 -108 -3 -114 18 -3 12 -11 20 -19
18 -22 -8 -29 -69 -22 -207 l6 -133 -23 7 c-40 12 -105 70 -349 314 l-235 234
-3 249 c-2 136 1 248 6 248 9 0 167 -180 294 -336 116 -143 268 -309 287 -313
13 -2 -16 38 -50 69 -3 3 -54 64 -114 135 -117 140 -228 270 -342 400 l-71 81
-6 80 c-9 115 -15 395 -9 410 3 8 9 14 13 14 4 0 64 -76 133 -168 68 -92 179
-235 245 -317 67 -82 120 -152 119 -155 -3 -11 64 -102 71 -96 3 3 -3 15 -13
26 -10 11 -16 23 -13 26 4 3 -85 124 -195 268 -111 145 -239 314 -284 375
l-82 113 -1 259 c0 159 3 259 9 259 5 0 31 -35 57 -77 52 -85 122 -195 219
-343 34 -52 95 -149 135 -214 41 -66 87 -134 103 -150 l28 -31 -25 40 c-168
266 -339 543 -376 610 -18 33 -39 72 -48 86 -11 19 -12 31 -4 45 9 16 12 14
26 -21 l17 -39 19 32 c26 42 25 98 -1 157 l-21 48 21 45 22 45 29 -29 c16 -16
80 -126 143 -244 152 -285 189 -350 199 -350 5 0 -2 17 -16 38 -13 20 -58 102
-100 182 -42 80 -108 201 -147 270 -40 69 -88 154 -107 190 -19 36 -44 81 -57
100 -12 19 -46 78 -76 130 l-54 95 -3 243 c-2 158 0 242 7 242 5 0 58 -92 116
-205 59 -113 108 -205 111 -205 7 0 -47 116 -136 286 -49 94 -92 188 -95 210
-9 66 -13 391 -5 404 5 8 14 4 29 -16 28 -35 27 -30 -9 54 -16 39 -30 78 -30
88 0 12 -118 265 -157 337 -2 4 11 7 29 7 32 -1 35 -4 71 -83z m141 44 c8 -20
43 -99 77 -176 34 -77 87 -205 119 -285 32 -80 81 -201 110 -270 28 -69 75
-186 105 -260 81 -207 124 -303 146 -325 10 -12 21 -34 24 -50 6 -34 -6 -87
-21 -92 -10 -3 -19 15 -92 182 -19 44 -43 98 -53 120 -31 70 -79 186 -134 325
-67 170 -84 210 -90 210 -3 0 -3 -12 0 -27 5 -24 4 -25 -5 -10 -6 9 -8 26 -5
37 4 12 -6 56 -21 103 -28 80 -29 81 -35 47 -3 -19 -7 -27 -8 -17 0 10 -9 35
-20 57 -10 22 -17 51 -14 67 3 19 2 24 -5 15 -7 -10 -13 0 -21 35 -7 26 -19
62 -26 78 -19 41 -29 78 -26 89 3 12 -41 106 -50 106 -4 0 -18 18 -33 40 l-26
40 44 -2 c41 -1 46 -4 60 -37z m420 17 c3 -13 6 -34 6 -48 0 -24 1 -24 34 13
32 34 36 36 50 21 9 -9 26 -34 37 -55 21 -43 35 -49 44 -20 3 10 21 29 41 42
26 18 34 30 31 47 -4 22 -3 22 106 22 l110 0 -6 -34 c-4 -26 -2 -36 11 -41 20
-7 52 27 52 56 0 18 10 19 149 19 l149 0 6 -122 c6 -151 24 -995 32 -1523 3
-214 7 -396 10 -403 6 -21 5 -661 -2 -777 -6 -104 -5 -114 21 -185 15 -41 32
-102 37 -135 5 -33 18 -103 30 -155 47 -223 59 -283 83 -423 14 -81 25 -161
25 -177 0 -30 -14 -41 -23 -17 -4 9 -8 8 -16 -3 -8 -11 -11 1 -11 48 0 35 -5
83 -11 108 -11 43 -13 44 -50 44 -37 0 -39 1 -50 44 -6 24 -24 59 -40 77 l-28
34 -1 -26 c0 -14 -7 -34 -15 -45 -17 -23 -20 -71 -4 -76 8 -3 6 -16 -5 -42
-20 -47 -20 -50 -1 -42 12 4 13 2 3 -13 -9 -14 -6 -29 12 -70 13 -28 27 -51
32 -51 18 0 8 -59 -12 -70 -26 -14 -37 8 -20 40 14 26 8 36 -10 15 -14 -17
-40 -20 -40 -5 0 6 -7 10 -16 10 -11 0 -14 5 -10 16 4 11 -1 18 -14 21 -15 4
-19 11 -15 24 5 14 1 19 -13 19 -22 0 -36 37 -26 64 3 9 1 23 -6 30 -8 11 -9
20 0 36 9 16 8 21 -5 26 -22 9 -19 20 16 56 26 28 29 37 24 69 -5 26 -2 41 10
52 14 15 14 19 0 46 -18 36 -45 32 -45 -7 0 -14 -6 -41 -12 -60 -10 -27 -10
-36 -1 -39 9 -3 8 -12 -2 -36 -17 -40 -37 -41 -42 -2 -2 17 -6 36 -8 43 -11
31 -75 -3 -75 -40 0 -10 -7 -18 -15 -18 -10 0 -15 10 -15 29 0 17 -5 33 -10
36 -14 9 -12 250 3 292 8 24 8 35 -1 46 -21 24 -36 437 -33 862 0 44 -1 118
-4 165 -3 47 0 136 5 199 6 67 7 118 1 125 -5 6 -11 27 -14 46 -14 91 -40 197
-53 217 -8 12 -14 34 -14 48 0 15 -4 34 -10 44 -5 10 -11 29 -14 42 -2 13 -7
32 -11 42 -11 27 8 20 41 -15 35 -38 64 -82 64 -98 0 -6 20 -52 45 -101 25
-49 45 -102 45 -117 0 -15 9 -38 20 -52 11 -14 20 -35 20 -48 0 -52 54 -238
76 -261 26 -28 30 43 8 189 -3 25 -15 53 -25 63 -24 23 -24 38 1 44 20 5 29
33 10 33 -5 0 -7 7 -4 15 4 8 2 15 -4 15 -16 0 -23 47 -11 73 9 19 7 31 -10
61 -16 28 -20 47 -15 71 4 26 1 43 -15 69 -18 28 -20 39 -11 62 10 25 8 31
-12 48 -19 15 -23 28 -23 70 0 51 0 51 -31 48 -43 -4 -62 20 -43 54 11 22 11
27 -1 34 -10 6 -21 3 -33 -8 -16 -14 -20 -15 -27 -2 -5 8 -18 26 -30 40 -14
16 -20 34 -18 52 5 31 -8 36 -38 13 -10 -8 -22 -15 -25 -15 -4 0 -5 34 -3 75
4 70 3 75 -16 75 -11 0 -20 7 -20 15 0 18 5 18 31 5 15 -9 21 -7 25 5 6 14 8
14 25 -1 11 -9 19 -23 19 -31 0 -20 49 -16 57 5 3 9 19 29 35 44 15 15 28 36
28 47 0 11 4 22 9 25 14 9 41 -4 41 -20 0 -16 16 -19 25 -5 3 6 -6 21 -21 34
-22 21 -26 31 -22 63 3 22 8 47 12 57 6 13 3 17 -13 17 -17 0 -27 -12 -42 -45
-11 -25 -23 -45 -27 -45 -4 1 -23 14 -42 30 -19 17 -38 30 -43 30 -18 0 -71
66 -107 133 -39 72 -57 77 -39 12 14 -51 52 -96 121 -147 57 -41 87 -90 74
-123 -4 -12 -10 -13 -32 -3 -22 10 -28 10 -39 -5 -11 -15 -13 -14 -25 8 -7 13
-22 25 -34 27 -12 2 -21 10 -22 18 -1 24 -37 90 -46 84 -15 -9 -9 -118 8 -143
13 -18 14 -28 6 -44 -6 -12 -13 -51 -16 -87 -5 -85 -24 -259 -31 -287 -6 -27
-33 -30 -42 -5 -6 19 -24 62 -115 282 -61 149 -178 440 -273 680 -29 74 -72
177 -94 228 -23 51 -41 95 -41 97 0 3 87 5 194 5 192 0 194 0 200 -22z m-1124
-170 c0 -4 6 -8 13 -9 18 -1 77 -86 77 -111 0 -11 16 -41 36 -65 31 -37 36
-50 31 -78 -5 -32 -3 -36 28 -51 30 -14 35 -22 51 -92 10 -42 19 -88 19 -103
1 -14 9 -36 18 -49 24 -35 22 -53 -5 -44 -52 16 -104 43 -121 61 -47 53 -71
166 -52 249 6 29 5 32 -25 38 -18 3 -46 6 -61 6 -22 0 -32 7 -42 28 -6 15 -16
30 -21 34 -25 17 11 195 39 195 8 0 15 -4 15 -9z m865 -427 c-10 -25 -25 9
-18 38 4 17 2 22 -6 17 -13 -8 -14 -5 -4 20 5 14 9 9 20 -21 7 -22 11 -46 8
-54z m-785 -65 c0 -19 -7 -40 -16 -47 -14 -11 -19 -10 -36 11 -13 16 -18 34
-15 53 2 15 -1 30 -6 34 -5 3 -3 9 4 14 8 4 24 0 41 -12 21 -15 28 -29 28 -53z
m-120 34 c0 -16 0 -33 1 -37 0 -4 -4 -9 -10 -11 -7 -2 -11 12 -11 37 0 23 5
41 10 41 6 0 10 -13 10 -30z m2231 -40 c5 0 9 -7 9 -16 0 -23 -44 -14 -48 10
-3 14 0 17 13 12 9 -3 21 -6 26 -6z m-2941 -45 c0 -8 -7 -15 -16 -15 -14 0
-14 3 -4 15 7 8 14 15 16 15 2 0 4 -7 4 -15z m1690 -60 c0 -5 -5 -3 -10 5 -5
8 -10 20 -10 25 0 6 5 3 10 -5 5 -8 10 -19 10 -25z m-721 -86 c32 -15 40 -24
32 -32 -6 -6 -11 -18 -10 -26 0 -11 3 -10 9 4 8 18 9 17 9 -7 1 -16 6 -28 11
-28 6 0 10 -18 10 -40 0 -22 -4 -40 -10 -40 -5 0 -11 -8 -11 -17 -1 -17 -2
-17 -6 -1 -2 9 1 27 7 39 10 17 9 23 -1 30 -8 5 -9 9 -4 9 6 0 6 3 0 8 -6 4
-21 22 -34 40 -17 24 -30 32 -52 32 -21 0 -29 5 -29 18 0 38 19 41 79 11z
m-201 -324 c1 -37 0 -38 -10 -15 -14 34 -19 80 -11 93 9 16 21 -27 21 -78z
m593 -67 c-1 -67 -4 -124 -7 -127 -2 -2 -4 56 -4 129 0 73 3 131 6 127 4 -3 6
-61 5 -129z m-24 -40 c-2 -29 -3 -6 -3 52 0 58 1 81 3 53 2 -29 2 -77 0 -105z
m793 93 c0 -6 -4 -13 -10 -16 -5 -3 -10 1 -10 9 0 9 5 16 10 16 6 0 10 -4 10
-9z m-1400 -49 c0 -4 15 -15 33 -25 27 -15 76 -68 50 -55 -68 34 -145 68 -153
68 -5 0 -10 5 -10 10 0 6 18 10 40 10 22 0 40 -3 40 -8z m-67 -104 c22 -7 54
-26 72 -43 l32 -30 7 -225 c3 -124 8 -322 11 -440 3 -118 7 -285 10 -370 7
-183 23 -881 31 -1270 2 -151 7 -363 10 -470 5 -164 8 -379 13 -822 1 -63 3
-68 25 -74 14 -3 23 -11 20 -17 -2 -7 15 -25 37 -41 22 -15 38 -30 35 -33 -2
-3 -15 2 -28 11 -12 9 -42 16 -65 16 -24 0 -43 4 -43 9 0 6 -8 9 -19 8 -10 0
-38 7 -62 17 -24 10 -55 23 -69 28 -14 6 -44 12 -67 13 -36 3 -43 0 -43 -16 0
-20 -15 -26 -25 -9 -4 6 -10 8 -15 5 -12 -7 -100 36 -100 49 -1 6 -17 23 -38
37 -20 14 -44 39 -52 55 -8 16 -25 43 -38 60 -12 18 -24 46 -27 64 -4 30 -3
31 14 16 20 -19 60 -26 81 -15 8 4 23 10 33 13 25 8 21 25 -9 36 -25 10 -25
11 -10 35 9 13 16 30 16 37 0 6 12 29 26 50 30 42 26 68 -9 68 -33 0 -35 4
-26 58 6 36 4 50 -7 58 -11 9 -12 13 -3 16 8 3 13 29 13 76 1 48 5 72 13 72 6
0 18 14 27 30 8 17 10 30 5 30 -5 0 -9 9 -9 20 0 11 -4 20 -9 20 -5 0 -12 15
-16 33 -11 53 -21 175 -13 171 11 -7 22 18 11 25 -19 12 -25 124 -9 169 8 23
11 42 6 42 -14 0 -23 40 -11 54 6 7 8 29 4 49 -3 20 0 58 7 83 11 39 11 47 -1
55 -17 10 -21 124 -7 186 12 48 4 88 -12 63 -8 -12 -10 -11 -10 7 0 12 6 23
13 26 6 2 13 19 14 38 1 19 5 53 9 77 3 23 3 50 -1 60 -5 9 -9 22 -10 27 0 6
-5 18 -9 28 -5 10 -4 23 3 31 9 11 9 15 -1 18 -10 4 -10 10 1 31 11 20 12 33
3 51 -8 18 -7 27 6 40 14 14 15 24 4 86 -9 53 -9 75 0 95 9 19 9 28 0 37 -7 7
-12 22 -12 34 0 13 -4 26 -10 29 -17 10 -11 44 10 55 17 9 19 17 13 55 -3 28
-2 45 5 45 6 0 7 13 2 37 -5 21 -6 65 -3 99 4 48 2 67 -11 85 -17 26 -22 59
-7 59 6 0 8 75 5 183 -2 100 -4 218 -4 262 0 55 -3 75 -10 65 -7 -11 -10 -6
-10 20 0 23 3 30 9 21 13 -20 19 -2 19 57 1 29 8 67 16 84 9 17 13 34 10 39
-3 5 2 6 10 3 9 -3 25 4 39 18 47 47 111 60 190 36z m1498 -219 c4 -35 7 -160
8 -276 1 -164 -2 -213 -11 -213 -10 0 -10 -2 -1 -8 8 -5 13 -162 17 -602 4
-327 8 -669 11 -760 3 -93 1 -171 -4 -179 -13 -21 -59 11 -67 47 -4 15 -15 39
-25 53 -16 22 -18 49 -19 185 -1 87 -3 186 -5 219 -5 86 -7 293 -6 664 0 321
0 324 22 347 19 20 20 24 6 24 -9 0 -17 6 -18 13 0 6 1 107 2 222 2 116 2 226
1 245 0 19 4 52 10 72 11 37 11 37 42 24 29 -12 31 -16 37 -77z m-718 11 l31
-53 -3 -186 c-1 -102 3 -201 8 -219 5 -18 7 -40 4 -47 -7 -20 -37 1 -71 52
-14 21 -30 41 -36 45 -8 5 -7 8 1 8 9 0 10 46 6 183 -6 189 0 281 19 275 6 -2
25 -28 41 -58z m116 -197 c10 -22 9 -29 -3 -42 -15 -14 -16 -13 -16 11 0 15
-3 33 -6 42 -10 27 12 17 25 -11z m-228 -211 c-7 -2 -18 1 -23 6 -8 8 -4 9 13
5 13 -4 18 -8 10 -11z m40 -239 c-3 -68 -11 -67 -11 2 0 32 3 55 7 51 4 -3 6
-28 4 -53z m-31 -14 c0 -21 -4 -39 -10 -39 -5 0 -10 21 -10 46 0 27 4 43 10
39 6 -3 10 -24 10 -46z m-32 -4 c-2 -9 -8 -12 -16 -6 -12 7 -12 12 0 30 10 17
14 18 16 6 2 -8 2 -22 0 -30z m49 -177 c-2 -13 -4 -3 -4 22 0 25 2 35 4 23 2
-13 2 -33 0 -45z m23 -470 c0 -42 -4 -80 -10 -83 -5 -3 -10 -1 -10 4 0 6 -5
11 -11 11 -6 0 -8 -8 -4 -19 3 -10 -1 -24 -10 -31 -13 -10 -15 -9 -15 9 0 11
-4 21 -9 21 -15 0 -3 173 12 185 8 6 18 21 22 34 7 23 8 22 21 -15 8 -21 14
-74 14 -116z m-1700 -48 c0 -5 -5 -10 -11 -10 -5 0 -7 5 -4 10 3 6 8 10 11 10
2 0 4 -4 4 -10z m1700 -75 c0 -8 -4 -15 -9 -15 -13 0 -22 16 -14 24 11 11 23
6 23 -9z m-1503 -168 c17 -12 30 -23 28 -26 -2 -2 -26 11 -52 29 -26 18 -39
30 -28 26 11 -4 34 -17 52 -29z m-539 -76 c71 -37 113 -93 121 -163 1 -4 26
-35 56 -69 30 -34 55 -65 55 -70 0 -5 6 -9 14 -9 8 0 18 -9 21 -20 3 -11 14
-20 22 -20 9 0 13 -3 10 -7 -10 -9 -187 -41 -219 -39 -15 1 -28 -1 -28 -5 0
-4 -34 -13 -75 -20 -57 -9 -75 -16 -75 -28 0 -9 -3 -12 -8 -6 -4 6 -16 11 -27
11 -34 3 -64 10 -71 17 -4 4 -16 7 -27 7 -11 0 -29 8 -39 17 -10 9 -34 17 -52
17 -31 1 -33 3 -20 17 8 8 14 21 14 29 0 7 7 18 17 25 16 12 15 21 -6 55 -5 8
-16 33 -26 56 -15 38 -15 43 0 82 19 47 63 89 103 98 15 4 32 10 37 14 40 31
152 37 203 11z m556 4 c11 -8 15 -15 10 -15 -6 0 -19 7 -30 15 -10 8 -14 14
-9 14 6 0 19 -6 29 -14z m2047 -62 c13 -16 12 -17 -3 -4 -10 7 -18 15 -18 17
0 8 8 3 21 -13z m-835 -47 c15 -31 17 -43 8 -39 -10 4 -14 -6 -14 -36 0 -23 5
-41 10 -41 6 0 10 -16 10 -35 0 -21 6 -37 16 -43 16 -9 15 -13 -2 -50 -10 -23
-21 -41 -24 -41 -13 0 -39 77 -33 98 3 14 1 26 -7 31 -12 7 -14 47 -11 168 1
45 22 40 47 -12z m224 23 c0 -5 -7 -9 -15 -9 -8 0 -15 7 -15 15 0 9 6 12 15 9
8 -4 15 -10 15 -15z m40 -75 c0 -8 -4 -12 -10 -9 -5 3 -10 10 -10 16 0 5 5 9
10 9 6 0 10 -7 10 -16z m11 -142 c-7 -2 -6 -10 1 -22 7 -11 9 -22 5 -26 -11
-11 -57 14 -57 31 0 8 -6 24 -12 35 -17 27 1 55 36 55 14 -1 27 4 28 10 1 5 3
-10 5 -35 3 -25 0 -46 -6 -48z m-1844 -164 c-3 -7 -5 -2 -5 12 0 14 2 19 5 13
2 -7 2 -19 0 -25z m-174 -180 c25 -35 59 -88 76 -119 35 -63 54 -76 126 -87
63 -10 125 17 136 61 5 17 3 27 -3 27 -6 0 8 13 30 30 23 16 49 41 58 55 13
20 21 24 42 18 29 -7 52 -26 52 -41 0 -5 7 -15 15 -22 8 -7 15 -23 15 -36 0
-12 4 -25 9 -29 11 -6 27 -135 23 -172 -2 -18 1 -21 15 -16 14 5 16 3 6 -7 -8
-9 -9 -19 -2 -31 6 -11 6 -33 0 -58 -5 -22 -6 -51 -4 -65 4 -21 2 -24 -16 -19
-14 3 -23 0 -27 -11 -10 -26 -34 -19 -36 12 0 15 -2 32 -3 37 -2 6 -3 17 -4
25 -2 25 -41 -31 -41 -60 0 -26 -20 -67 -20 -42 0 6 -7 12 -15 12 -8 0 -15 8
-16 18 0 10 -3 12 -6 4 -2 -6 -9 -9 -15 -6 -18 11 -27 -18 -22 -77 4 -54 2
-58 -31 -90 -19 -19 -35 -37 -35 -41 0 -15 29 -8 32 7 2 10 8 12 17 5 12 -7
12 -11 2 -24 -8 -9 -20 -16 -27 -16 -8 0 -14 -4 -14 -10 0 -14 -74 -12 -88 2
-9 9 -12 9 -12 0 0 -21 -58 -14 -70 8 -6 11 -17 20 -25 20 -26 0 -16 28 16 44
17 9 35 14 39 11 4 -3 10 2 14 10 3 8 15 15 27 15 21 0 21 0 -4 33 -18 24 -24
41 -20 62 5 26 4 28 -18 21 -28 -8 -182 -18 -156 -10 9 3 15 9 12 13 -5 10
105 37 187 46 46 5 64 2 96 -14 45 -23 52 -18 52 43 0 43 -27 66 -82 73 -24 2
-52 8 -63 13 -11 4 -40 16 -65 26 -25 10 -53 24 -63 32 -16 14 -16 16 5 26 41
21 36 81 -9 108 -18 10 -48 15 -81 14 -64 -1 -74 7 -83 78 -4 28 -12 71 -17
96 -12 53 -9 60 23 60 18 0 35 -16 68 -62z m3297 -129 c12 -9 10 -10 -8 -6
-19 4 -21 3 -12 -8 9 -10 7 -16 -9 -24 -28 -16 -51 -13 -58 5 -12 33 53 57 87
33z m-1351 -54 c-2 -25 -6 -45 -11 -45 -4 0 -8 20 -8 45 0 25 5 45 10 45 7 0
10 -19 9 -45z m841 -106 c0 -31 -14 -39 -24 -13 -8 21 3 56 15 49 5 -4 9 -19
9 -36z m-2140 14 c0 -10 -5 -25 -10 -33 -7 -11 -10 -7 -10 18 0 17 5 32 10 32
6 0 10 -8 10 -17z m2680 7 c0 -5 -7 -10 -15 -10 -8 0 -15 5 -15 10 0 6 7 10
15 10 8 0 15 -4 15 -10z m43 -80 c25 -46 27 -60 27 -153 0 -56 0 -111 1 -121
0 -33 -18 -42 -42 -20 -52 45 -179 216 -179 240 0 24 2 24 55 18 53 -5 54 -5
61 23 6 26 31 61 45 62 3 1 17 -22 32 -49z m-2663 -4 c18 -35 20 -47 11 -65
-15 -28 -55 -27 -75 1 -21 30 -21 68 1 68 9 0 13 3 10 7 -8 7 11 33 24 33 4 0
17 -20 29 -44z m-570 -75 c0 -5 -18 -8 -40 -7 -22 0 -40 4 -40 8 0 5 18 8 40
8 22 0 40 -4 40 -9z m2628 -33 c7 -7 12 -23 12 -37 0 -16 12 -35 32 -53 18
-15 29 -30 25 -34 -8 -9 -57 15 -57 28 0 4 -9 17 -20 28 -11 11 -20 33 -20 50
0 32 9 37 28 18z m176 -13 c-4 -8 -8 -15 -10 -15 -2 0 -4 7 -4 15 0 8 4 15 10
15 5 0 7 -7 4 -15z m-2443 -52 c-10 -17 -10 -16 -11 3 0 23 13 41 18 25 2 -6
-1 -18 -7 -28z m2454 -43 c19 -8 19 -9 -2 -9 -12 -1 -25 4 -28 9 -7 12 2 12
30 0z m92 -137 c-16 -16 -17 -16 -17 3 0 11 3 24 7 28 4 3 11 2 17 -4 7 -7 5
-16 -7 -27z m-2421 3 c25 -26 17 -62 -23 -95 -53 -43 -55 -33 -12 51 5 10 9
27 9 38 0 24 6 25 26 6z m2535 -23 c-9 -16 -10 -14 -11 12 0 21 3 26 11 18 8
-8 8 -16 0 -30z m-2744 -30 c-4 -3 -13 0 -22 7 -12 10 -13 16 -3 27 11 13 14
12 22 -6 5 -12 6 -24 3 -28z m282 -2 c-6 -17 -9 -35 -5 -38 3 -4 6 -1 6 5 0
23 16 12 33 -22 23 -49 53 -184 68 -308 l13 -107 -27 -50 c-16 -32 -22 -53
-15 -57 7 -4 5 -10 -3 -16 -11 -7 -11 -11 -1 -15 6 -2 10 -9 6 -14 -11 -18
-22 -9 -19 16 1 14 -2 28 -7 31 -4 3 -8 2 -7 -3 4 -23 -2 -53 -11 -53 -13 0
-13 46 0 70 14 26 2 53 -21 47 -14 -4 -19 0 -19 15 0 22 -18 60 -34 70 -7 5
-4 8 7 8 9 0 17 5 17 10 0 6 -5 9 -12 8 -8 -2 -15 14 -18 42 -3 25 -9 51 -14
59 -24 38 -26 144 -4 199 9 23 16 42 13 42 -2 0 -17 -13 -33 -30 -17 -16 -35
-30 -41 -30 -5 0 -14 -6 -18 -12 -10 -16 -53 -41 -52 -31 0 5 19 24 43 43 23
19 66 66 96 103 54 69 79 77 59 18z m2869 -145 c3 -51 -6 -66 -42 -66 -22 0
-56 27 -56 44 0 19 61 77 79 74 12 -2 17 -16 19 -52z m-6318 -221 c0 -8 9 -24
21 -36 16 -16 23 -18 35 -8 8 6 14 17 14 24 0 15 19 24 38 18 6 -3 12 -10 12
-18 0 -7 7 -18 15 -25 8 -7 15 -16 15 -21 0 -11 -74 -12 -84 -2 -4 4 -26 6
-50 4 -56 -3 -76 17 -52 54 18 28 36 33 36 10z m494 -30 c-4 -8 -8 -15 -10
-15 -2 0 -4 7 -4 15 0 8 4 15 10 15 5 0 7 -7 4 -15z m3921 -131 c40 -27 73
-38 160 -54 103 -19 106 -20 40 -16 -38 3 -78 8 -89 12 -15 6 -17 4 -11 -14 4
-13 2 -22 -4 -22 -6 0 -11 4 -11 10 0 10 -21 25 -137 101 -35 23 -63 43 -63
45 0 7 60 -26 115 -62z m-1935 31 c0 -17 -46 -72 -72 -86 -19 -10 -20 -8 -14
38 4 26 13 53 21 59 19 14 65 6 65 -11z m-2464 -4 c-7 -10 22 -51 36 -51 19 0
48 32 48 52 0 30 27 21 33 -12 4 -16 15 -38 26 -49 15 -15 17 -22 7 -30 -7 -6
-11 -24 -8 -41 4 -26 1 -30 -20 -30 -13 0 -32 6 -42 13 -17 12 -17 15 -2 30
16 15 15 17 -9 23 -32 8 -40 1 -26 -24 14 -26 6 -32 -46 -32 -36 0 -43 3 -43
20 0 11 7 20 15 20 24 0 17 19 -10 26 -16 4 -25 13 -25 25 0 10 11 26 25 35
14 9 25 23 25 31 0 8 5 11 10 8 6 -4 8 -10 6 -14z m2131 -98 c2 -6 -5 -14 -16
-18 -28 -9 -28 -51 0 -60 31 -10 44 -54 22 -74 -36 -33 -50 -32 -68 6 -23 48
-24 103 -2 137 19 28 56 33 64 9z m2621 -10 c-10 -2 -28 -2 -40 0 -13 2 -5 4
17 4 22 1 32 -1 23 -4z m-3128 -38 c11 -13 8 -17 -18 -26 -32 -11 -62 -47 -62
-75 0 -13 6 -15 30 -10 45 8 78 -11 90 -53 13 -48 12 -81 -3 -111 -19 -38 -39
-30 -68 25 -14 28 -37 56 -52 63 -36 18 -47 87 -21 143 25 57 75 78 104 44z
m1819 -92 c-22 -13 -10 -12 26 3 16 7 65 -80 65 -115 0 -27 3 -32 22 -29 18 2
22 -3 26 -32 2 -19 9 -42 17 -50 33 -39 39 -111 42 -515 2 -240 -2 -452 -9
-530 -6 -71 -11 -138 -10 -147 0 -10 -6 -18 -14 -18 -8 0 -14 -10 -14 -22 0
-13 -5 -30 -10 -38 -8 -13 -10 -12 -10 2 0 20 -32 20 -52 0 -7 -7 -18 -12 -25
-12 -7 0 -13 -7 -13 -15 0 -10 -17 -16 -60 -21 -64 -7 -70 -19 -15 -30 35 -6
46 -19 23 -26 -7 -3 -3 -12 11 -25 19 -18 21 -24 10 -41 -14 -22 -49 -37 -49
-21 0 5 -9 9 -21 9 -11 0 -17 -4 -14 -10 4 -6 -5 -10 -19 -10 -14 0 -26 -4
-26 -10 0 -5 8 -10 17 -10 13 0 14 -3 6 -11 -9 -9 -16 -8 -28 5 -9 9 -31 16
-48 15 -18 0 -85 3 -149 7 -83 5 -118 4 -118 -4 0 -6 19 -13 43 -15 39 -3 39
-4 -12 -5 -45 -2 -52 1 -47 14 5 13 -4 15 -69 12 -41 -2 -75 -7 -75 -12 0 -5
-22 -6 -49 -2 -27 3 -59 2 -72 -3 -41 -15 -150 6 -179 34 -24 25 -25 29 -23
153 3 184 31 602 48 707 7 50 13 106 13 125 -2 54 11 105 32 130 11 13 20 38
20 57 0 18 5 33 10 33 6 0 15 12 21 27 7 20 12 24 18 14 9 -14 14 -10 36 34 6
11 20 21 30 21 11 1 22 3 25 4 3 1 41 3 85 6 137 8 248 25 294 45 24 10 53 19
65 19 23 0 53 16 46 24 -3 2 -24 1 -47 -4 -24 -4 -43 -3 -43 1 0 5 5 9 10 9 6
0 10 7 10 15 0 8 5 15 10 15 6 0 10 6 10 14 0 7 24 21 56 31 38 12 54 21 50
31 -3 7 -1 16 5 20 5 3 7 13 5 22 -4 12 6 22 34 36 45 21 52 36 18 36 -17 0
-19 3 -9 9 7 5 11 14 7 20 -5 7 -1 9 9 5 12 -5 16 -2 13 12 -2 15 2 18 20 16
12 -2 22 2 22 8 0 6 5 8 11 4 8 -4 3 -12 -12 -21z m-1719 -199 c0 -10 -7 -14
-22 -12 -32 5 -35 28 -4 28 17 0 26 -5 26 -16z m990 -1570 c0 -2 -9 -8 -19
-13 -16 -9 -18 -8 -14 8 3 12 11 17 19 14 8 -3 14 -7 14 -9z m365 -163 c66
-11 158 -29 205 -41 47 -12 102 -25 122 -29 48 -11 145 -60 152 -77 4 -10 -3
-14 -21 -14 -33 0 -24 -10 30 -33 41 -17 38 -17 -188 -11 -148 3 -255 1 -300
-6 -38 -6 -115 -15 -170 -20 -55 -6 -151 -17 -214 -26 -80 -11 -116 -13 -124
-5 -6 6 -8 13 -4 17 3 3 63 23 133 45 92 28 147 39 203 40 85 2 101 6 101 23
0 22 -67 45 -218 76 -190 38 -254 64 -209 84 27 13 385 -3 502 -23z m390 -352
c86 -22 136 -52 116 -72 -15 -15 -224 -26 -397 -22 -143 4 -147 3 -184 -21
-46 -31 -127 -36 -146 -10 -6 9 -14 13 -17 9 -4 -3 -7 1 -7 9 0 9 6 16 13 15
43 -1 77 4 77 14 0 5 -8 9 -17 8 -32 -3 -44 1 -38 11 3 6 17 10 31 10 17 0 23
4 18 12 -4 6 -3 8 3 5 5 -3 29 3 52 15 82 40 363 50 496 17z m2900 -30 c11
-17 -1 -21 -15 -4 -8 9 -8 15 -2 15 6 0 14 -5 17 -11z m69 -49 c20 -22 36 -48
35 -58 0 -14 -2 -13 -9 4 -4 11 -24 34 -44 52 -20 17 -36 34 -36 37 0 15 21 1
54 -35z m-1022 -140 c40 0 58 -10 58 -32 0 -39 29 -76 79 -100 28 -12 50 -26
51 -30 0 -4 -12 -15 -26 -25 -63 -44 -94 -77 -110 -118 -13 -36 -60 -86 -68
-73 -7 11 -30 125 -75 380 l-8 47 36 -25 c20 -13 48 -24 63 -24z m-2114 24
c56 -6 62 -9 62 -29 0 -32 42 -38 127 -19 119 27 149 28 156 10 4 -10 3 -15
-3 -11 -6 3 -10 2 -10 -3 0 -5 -22 -32 -50 -60 l-50 -51 -79 -2 c-68 -2 -133
-12 -381 -59 -25 -5 -67 -14 -95 -20 -27 -5 -61 -13 -75 -15 -94 -19 -93 -28
8 -50 70 -16 291 -23 312 -10 27 17 366 40 374 26 17 -26 -70 -48 -264 -66
-171 -16 -163 -57 17 -90 93 -18 107 -23 144 -57 23 -21 47 -38 53 -38 7 0 34
-11 62 -24 27 -13 57 -26 67 -30 28 -9 17 -40 -16 -44 -45 -5 -256 67 -288 99
-10 10 -29 19 -42 19 -19 0 -74 37 -138 93 -26 23 -116 50 -209 62 -83 11
-108 18 -160 45 -30 16 -77 37 -105 46 -76 25 -175 76 -175 91 0 7 -4 13 -10
13 -5 0 -10 7 -10 16 0 11 5 14 18 9 9 -4 44 -13 77 -21 33 -7 83 -20 110 -28
74 -23 160 -20 251 9 44 14 93 30 110 35 17 6 37 10 45 10 8 0 25 9 39 20 34
26 22 36 -80 61 -46 12 -96 29 -113 39 -27 17 -28 19 -10 29 18 12 197 9 331
-5z m346 -153 c3 -4 -6 -6 -19 -3 -14 2 -25 6 -25 8 0 8 39 4 44 -5z m-894
-329 c0 -5 6 -9 13 -10 81 -11 133 -32 157 -64 3 -3 44 -31 92 -61 98 -61 143
-75 273 -81 49 -3 91 -10 93 -15 2 -6 16 -9 30 -6 23 5 24 4 7 -4 -11 -5 -14
-10 -7 -10 6 -1 12 -6 12 -12 0 -6 -7 -8 -16 -5 -9 4 -22 2 -28 -3 -17 -14
-162 -32 -209 -25 -89 12 -154 49 -311 178 -60 49 -122 95 -137 103 -37 18
-36 23 1 23 17 0 30 -4 30 -8z m-70 -178 c0 -12 -4 -12 -19 -2 -11 7 -18 15
-15 20 7 11 34 -3 34 -18z m1037 10 c-3 -3 -12 -4 -19 -1 -8 3 -5 6 6 6 11 1
17 -2 13 -5z m-2652 -15 c4 -5 9 -27 11 -47 4 -32 0 -42 -27 -67 l-31 -30 -20
25 c-15 18 -18 32 -13 60 9 49 62 89 80 59z m1670 -9 c3 -5 -1 -10 -9 -10 -8
0 -18 5 -21 10 -3 6 1 10 9 10 8 0 18 -4 21 -10z m-1841 -101 c8 -60 -3 -79
-45 -79 -28 0 -29 1 -29 51 0 38 5 55 18 65 35 27 49 17 56 -37z m1662 -8 c5
-5 18 -11 29 -14 16 -4 15 -5 -6 -6 -14 0 -34 6 -45 14 -15 11 -16 14 -3 15 8
0 19 -4 25 -9z m-1829 -61 c2 -57 1 -61 -27 -75 -28 -14 -30 -14 -43 7 -32 55
-5 127 48 128 18 0 20 -7 22 -60z m-186 -8 c0 -4 1 -32 2 -62 2 -49 0 -55 -25
-69 -37 -21 -51 -6 -55 59 -2 37 1 50 11 50 8 0 16 6 19 13 5 13 47 21 48 9z
m648 -323 c-16 -10 -23 -4 -14 10 3 6 11 8 17 5 6 -4 5 -9 -3 -15z m3756 -617
c22 -16 35 -40 29 -56 -9 -24 -20 -20 -42 16 -25 39 -17 62 13 40z m-3497 -27
c-3 -3 -9 2 -12 12 -6 14 -5 15 5 6 7 -7 10 -15 7 -18z m3577 -35 c10 -11 24
-20 32 -20 7 0 13 -5 13 -10 0 -6 -6 -10 -14 -8 -8 2 -22 -6 -30 -17 -15 -20
-15 -20 -37 2 -20 19 -21 26 -11 48 14 30 23 31 47 5z m14 -216 c4 3 13 -5 20
-17 14 -21 13 -21 -10 -6 -12 9 -24 21 -25 28 -1 6 0 7 3 1 2 -5 8 -8 12 -6z
m-5557 -416 c-7 -7 -12 -8 -12 -2 0 14 12 26 19 19 2 -3 -1 -11 -7 -17z m-152
-68 c5 0 11 6 14 13 3 6 4 1 3 -13 -1 -17 -8 -25 -20 -25 -10 0 -23 -8 -28
-18 -6 -9 -15 -17 -21 -17 -9 0 -9 3 0 12 7 7 12 20 12 30 0 10 5 18 10 18 6
0 11 8 11 18 1 16 2 16 6 0 2 -10 8 -18 13 -18z m-80 -75 c0 -8 -4 -15 -10
-15 -5 0 -7 7 -4 15 4 8 8 15 10 15 2 0 4 -7 4 -15z m320 -125 c0 -5 -4 -10
-10 -10 -5 0 -10 5 -10 10 0 6 5 10 10 10 6 0 10 -4 10 -10z"/>
<path d="M5770 12521 c0 -11 5 -23 10 -26 6 -3 10 3 10 14 0 11 -4 23 -10 26
-5 3 -10 -3 -10 -14z"/>
<path d="M6465 12890 c-9 -15 3 -30 20 -24 23 9 27 34 5 34 -10 0 -22 -4 -25
-10z"/>
<path d="M6390 12770 c0 -36 5 -72 10 -80 7 -11 10 4 10 50 0 36 -5 72 -10 80
-7 11 -10 -4 -10 -50z"/>
<path d="M5841 12760 c0 -14 28 -72 29 -59 0 4 -7 22 -15 40 -8 19 -14 27 -14
19z"/>
<path d="M5870 12688 c0 -3 6 -21 14 -39 7 -19 16 -43 20 -53 3 -10 9 -17 11
-14 5 5 -27 93 -38 104 -4 4 -7 5 -7 2z"/>
<path d="M5923 12553 c24 -77 82 -214 85 -200 2 9 -8 41 -21 69 -13 29 -32 74
-42 101 -17 44 -34 68 -22 30z"/>
<path d="M6757 11454 c-12 -12 -8 -174 5 -197 6 -12 14 -51 17 -87 6 -65 6
-65 39 -68 35 -4 40 7 22 52 -5 14 -21 83 -36 153 -27 132 -35 158 -47 147z"/>
<path d="M6610 10622 c0 -21 5 -54 11 -72 l12 -33 13 25 c18 34 5 111 -19 116
-14 3 -17 -4 -17 -36z"/>
<path d="M6625 9690 c3 -5 8 -10 11 -10 2 0 4 5 4 10 0 6 -5 10 -11 10 -5 0
-7 -4 -4 -10z"/>
<path d="M4132 8655 c0 -16 2 -22 5 -12 2 9 2 23 0 30 -3 6 -5 -1 -5 -18z"/>
<path d="M4097 8643 c-4 -7 -3 -21 3 -32 5 -11 7 -27 4 -35 -3 -9 -1 -16 5
-16 12 0 12 18 2 65 -4 20 -9 26 -14 18z"/>
<path d="M6880 8709 c0 -5 5 -7 10 -4 6 3 10 8 10 11 0 2 -4 4 -10 4 -5 0 -10
-5 -10 -11z"/>
<path d="M4327 7483 c-10 -10 -8 -23 4 -23 5 0 8 4 5 9 -4 5 0 12 6 14 7 3 8
6 2 6 -6 1 -14 -2 -17 -6z"/>
<path d="M4200 5970 c0 -5 5 -10 10 -10 6 0 10 5 10 10 0 6 -4 10 -10 10 -5 0
-10 -4 -10 -10z"/>
<path d="M3783 5203 c9 -2 23 -2 30 0 6 3 -1 5 -18 5 -16 0 -22 -2 -12 -5z"/>
<path d="M120 8620 c-7 -12 -9 -74 -7 -161 3 -137 4 -143 28 -160 108 -82 152
-150 171 -266 9 -49 8 -76 -3 -121 -18 -75 -19 -70 21 -90 19 -9 45 -33 58
-52 l24 -35 -8 30 c-4 17 -11 40 -15 52 -10 26 -5 207 6 241 5 16 3 22 -7 22
-34 0 -74 65 -83 137 -8 56 8 83 51 83 27 0 35 -34 9 -44 -23 -9 -20 -92 3
-105 46 -24 88 48 79 134 -8 78 -50 150 -116 199 -30 23 -73 59 -95 81 -42 41
-86 75 -98 75 -4 0 -12 -9 -18 -20z"/>
<path d="M304 8552 c4 -6 24 -21 44 -32 44 -25 94 -94 123 -171 20 -51 22
-116 7 -213 -2 -13 4 -22 17 -25 61 -18 108 -88 124 -183 l8 -53 16 37 c35 79
15 243 -43 357 -37 73 -133 185 -201 237 -54 41 -108 67 -95 46z"/>
<path d="M5570 8455 c0 -8 4 -15 10 -15 5 0 7 7 4 15 -4 8 -8 15 -10 15 -2 0
-4 -7 -4 -15z"/>
<path d="M120 8145 l0 -107 29 7 c20 4 34 1 45 -10 21 -22 20 -28 -6 -40 -17
-7 -24 -20 -26 -47 -6 -77 36 -102 82 -47 21 25 26 41 26 89 0 97 -41 183
-112 234 l-38 27 0 -106z"/>
<path d="M6275 8164 c37 -31 133 -94 154 -101 9 -3 -24 24 -73 61 -85 63 -143
92 -81 40z"/>
<path d="M6457 8039 c7 -7 15 -10 18 -7 3 3 -2 9 -12 12 -14 6 -15 5 -6 -5z"/>
<path d="M461 8018 c-63 -67 -25 -269 66 -349 25 -21 44 -29 73 -29 21 0 41 4
44 9 3 5 3 36 0 70 l-7 61 -38 -6 c-33 -6 -42 -3 -69 24 -38 38 -39 67 -3 84
38 18 47 66 21 118 -23 47 -55 53 -87 18z"/>
<path d="M6505 8000 c3 -5 11 -10 16 -10 6 0 7 5 4 10 -3 6 -11 10 -16 10 -6
0 -7 -4 -4 -10z"/>
<path d="M5890 7935 c0 -7 90 -51 120 -59 14 -4 -5 9 -42 28 -68 36 -78 40
-78 31z"/>
<path d="M7116 7804 c-4 -9 -3 -21 2 -26 12 -12 23 15 12 31 -5 9 -9 8 -14 -5z"/>
<path d="M200 7779 c0 -11 5 -17 10 -14 6 3 10 13 10 21 0 8 -4 14 -10 14 -5
0 -10 -9 -10 -21z"/>
<path d="M1236 7783 c-6 -14 -5 -15 5 -6 7 7 10 15 7 18 -3 3 -9 -2 -12 -12z"/>
<path d="M117 7763 c-3 -10 -4 -36 -2 -58 2 -22 3 -53 4 -69 1 -28 2 -29 21
-11 29 26 36 80 16 121 -17 37 -32 43 -39 17z"/>
<path d="M275 7750 c-9 -10 -20 -39 -22 -63 -6 -50 13 -77 53 -77 32 0 32 -27
0 -42 -32 -14 -52 -6 -75 33 l-19 31 -13 -23 c-13 -25 -32 -41 -62 -49 -27 -8
-31 -115 -6 -193 23 -71 24 -103 5 -148 -13 -32 -19 -79 -31 -239 -8 -106 12
-227 45 -285 16 -28 41 -57 55 -65 17 -9 25 -22 25 -41 0 -15 -4 -30 -10 -34
-5 -3 -51 -8 -102 -11 -51 -3 -99 -6 -106 -7 -7 0 -11 -5 -9 -11 2 -6 19 -9
38 -7 66 7 84 5 82 -7 -2 -7 2 -12 7 -12 6 0 10 6 10 14 0 8 10 14 24 14 19 0
23 -5 21 -25 -1 -13 -5 -26 -7 -29 -3 -3 -44 -10 -92 -17 -89 -12 -100 -20
-76 -57 8 -13 10 -12 10 3 0 14 7 18 28 16 15 -2 33 0 40 4 7 5 12 3 12 -4 0
-8 7 -6 19 5 19 18 20 17 36 -37 10 -34 25 -62 40 -73 14 -10 25 -24 25 -31 0
-14 58 -32 78 -25 9 3 12 102 12 450 l0 445 -24 41 c-28 47 -41 120 -31 166 4
19 25 48 52 73 59 55 85 107 85 171 1 77 -10 113 -44 141 -36 30 -49 31 -73 5z
m-58 -1417 c-3 -10 -5 -4 -5 12 0 17 2 24 5 18 2 -7 2 -21 0 -30z"/>
<path d="M427 7678 c21 -86 -6 -230 -51 -267 -9 -7 -16 -21 -16 -31 0 -11 -12
-22 -30 -29 -28 -9 -30 -14 -30 -59 0 -39 5 -53 26 -73 l26 -24 -8 -490 c-7
-535 -10 -505 50 -519 68 -16 106 -93 71 -143 -16 -22 -82 -41 -149 -42 -21 0
-45 -6 -53 -13 -11 -9 -16 -9 -22 1 -7 10 -20 11 -67 1 -33 -6 -67 -16 -76
-21 -10 -5 -26 -9 -35 -8 -12 1 -10 4 7 9 l25 8 -25 2 c-14 1 -34 3 -45 4 -18
2 -21 -4 -23 -51 l-2 -52 37 5 c21 2 76 6 123 9 47 2 110 9 140 15 30 6 67 12
82 14 15 1 37 15 49 30 19 24 28 27 59 23 21 -3 42 -2 48 2 6 4 11 240 13 678
l4 672 41 16 c57 22 79 48 78 96 -2 47 -15 65 -55 73 -39 7 -33 31 7 31 47 1
29 19 -25 26 -56 7 -97 36 -144 100 -16 22 -31 39 -34 39 -2 0 -1 -15 4 -32z"/>
<path d="M7125 7660 c-9 -39 3 -157 16 -165 12 -8 12 165 0 184 -6 10 -11 5
-16 -19z"/>
<path d="M1100 7594 c0 -12 7 -27 15 -34 20 -17 21 9 0 36 -14 19 -14 19 -15
-2z"/>
<path d="M1914 7527 c-8 -21 2 -35 16 -21 5 5 6 15 0 24 -8 12 -10 12 -16 -3z"/>
<path d="M709 7484 c-1 -5 -2 -41 -3 -81 -1 -61 -5 -75 -25 -97 -14 -14 -35
-26 -47 -26 -13 0 -25 -3 -27 -7 -15 -26 -28 -1265 -13 -1280 3 -3 40 -12 83
-19 81 -14 107 -8 83 21 -11 13 -8 15 21 15 l33 0 -27 28 c-46 48 -33 66 25
36 26 -14 30 -20 25 -48 -8 -51 34 -91 48 -46 3 11 15 20 26 20 25 0 24 8 -6
32 -36 28 -32 42 11 35 52 -9 84 -54 44 -64 -17 -5 -18 -7 -5 -27 8 -12 21
-54 30 -95 8 -40 17 -77 20 -81 3 -5 1 -11 -5 -15 -17 -10 -11 -25 10 -25 17
0 20 7 20 50 0 38 4 50 15 50 12 0 15 -13 15 -58 l0 -59 -40 -16 c-38 -15 -40
-18 -41 -59 -1 -24 0 -56 1 -71 1 -16 -5 -36 -13 -45 -17 -20 -20 -78 -4 -110
8 -18 8 -25 -2 -31 -7 -5 15 -10 54 -13 43 -4 73 -12 85 -23 19 -17 20 -17 21
6 1 13 1 341 -1 728 -2 655 -3 705 -20 735 -42 73 -32 160 24 213 82 78 89
282 9 283 -27 0 -43 -32 -43 -86 0 -53 0 -54 30 -54 23 0 30 -4 30 -20 0 -13
-10 -24 -24 -30 -18 -7 -27 -19 -32 -47 -8 -44 -30 -73 -55 -73 -10 0 -22 8
-28 18 -13 23 -18 8 -26 -80 -4 -38 -10 -68 -15 -68 -4 0 -18 8 -30 18 -17 14
-23 32 -28 92 -7 70 -9 75 -32 78 -21 3 -22 2 -11 -11 8 -10 12 -41 10 -86
l-2 -71 44 -23 c36 -19 45 -29 47 -56 l3 -32 -28 17 c-91 56 -142 135 -143
219 l-1 50 -22 -27 c-47 -58 -104 -26 -109 62 -3 41 -1 45 21 48 20 3 23 1 18
-20 -4 -13 -2 -30 4 -38 8 -13 11 -12 24 4 12 16 15 54 15 176 0 144 -2 158
-20 175 -11 10 -20 14 -21 9z m109 -580 c23 -19 42 -42 42 -49 0 -8 26 -27 57
-42 41 -20 58 -34 60 -50 2 -13 0 -23 -3 -23 -39 0 -224 150 -224 181 0 28 22
23 68 -17z m-8 -89 c16 -8 37 -28 47 -45 9 -16 26 -30 36 -30 32 0 77 -29 77
-50 0 -23 -16 -19 -76 22 -23 15 -46 28 -52 28 -11 0 -92 74 -92 84 0 11 30 6
60 -9z m0 -80 c26 -13 50 -42 50 -59 0 -3 -9 -6 -20 -6 -20 0 -90 55 -90 71 0
14 28 11 60 -6z m20 -94 c30 -22 37 -49 15 -57 -11 -5 -29 6 -56 32 -21 21
-39 42 -39 47 0 13 51 -1 80 -22z m118 13 c12 -8 22 -22 22 -30 0 -21 -62 6
-66 29 -3 21 15 22 44 1z m0 -55 c24 -9 32 -59 10 -59 -18 1 -64 41 -71 63 -7
19 0 19 61 -4z m-145 -24 c20 -8 39 -20 44 -27 12 -19 11 -58 -2 -58 -18 0
-95 70 -95 86 0 18 9 18 53 -1z m150 -47 c9 -5 17 -20 17 -33 0 -19 -4 -23
-18 -17 -28 11 -72 48 -72 61 0 12 40 6 73 -11z m-149 -43 c22 -9 41 -27 48
-43 7 -15 13 -28 14 -30 1 -1 12 -5 25 -8 13 -3 34 -8 47 -11 19 -5 14 4 -25
41 l-48 48 40 -7 c22 -4 45 -11 52 -16 15 -13 15 -139 0 -139 -6 0 -27 15 -47
34 -19 19 -55 45 -79 58 -49 26 -104 88 -79 88 9 0 32 -7 52 -15z m40 -119
c23 -24 53 -46 68 -50 36 -8 58 -32 58 -62 0 -34 -15 -30 -72 21 -28 25 -55
45 -62 45 -14 0 -86 68 -86 81 0 5 12 9 27 9 18 0 39 -13 67 -44z m-12 -64
c10 -8 20 -22 23 -32 3 -10 26 -25 50 -35 47 -17 65 -38 65 -75 0 -22 0 -22
-27 -5 -16 10 -39 29 -52 42 -13 12 -29 23 -36 23 -16 0 -105 85 -105 99 0 14
61 2 82 -17z m-31 -73 c27 -8 41 -20 50 -40 9 -23 20 -31 50 -35 49 -8 68 -22
71 -54 5 -39 -25 -35 -70 10 -48 47 -65 51 -60 13 4 -34 -24 -43 -53 -17 -23
20 -25 44 -4 44 22 0 18 13 -10 40 -23 22 -34 50 -19 50 4 0 24 -5 45 -11z"/>
<path d="M1085 7465 c-11 -8 -30 -22 -42 -31 -22 -16 -23 -23 -23 -165 0 -149
6 -173 35 -149 8 6 19 9 25 5 5 -3 10 -1 10 4 0 6 -9 11 -19 11 -17 0 -20 10
-26 84 -10 121 2 160 59 180 23 8 76 -48 107 -111 29 -61 22 -184 -15 -255
-14 -28 -26 -60 -26 -71 0 -16 -3 -18 -9 -9 -6 10 -10 10 -21 -3 -17 -21 -15
-73 4 -94 13 -15 15 -74 14 -446 -1 -475 -1 -479 54 -468 41 8 58 -15 58 -79
0 -36 -5 -52 -22 -68 -13 -12 -30 -19 -39 -17 -32 9 -43 -33 -47 -185 -5 -168
-1 -198 29 -198 28 0 59 -18 59 -34 0 -7 -11 -18 -25 -24 -35 -16 -48 -54 -35
-103 6 -21 15 -39 19 -39 5 0 11 -9 14 -20 7 -27 72 -28 86 -1 7 11 9 280 7
751 l-2 733 23 25 c29 32 28 76 -2 78 -50 3 -50 3 -33 21 16 15 16 18 -3 44
-33 47 -51 111 -52 189 -3 121 45 187 110 153 41 -21 73 -54 73 -74 0 -25 15
-32 30 -14 7 8 19 15 26 15 25 0 15 20 -18 34 -18 8 -69 38 -113 68 -63 42
-95 73 -148 143 -37 50 -73 100 -79 113 -13 26 -16 26 -43 7z"/>
<path d="M2027 7306 c-6 -16 2 -28 14 -20 12 7 11 34 0 34 -5 0 -11 -6 -14
-14z"/>
<path d="M2037 7180 c3 -11 9 -23 14 -26 5 -3 9 -16 9 -30 l0 -24 -21 21 c-28
28 -44 13 -58 -59 -17 -85 -6 -145 30 -166 16 -9 30 -16 30 -14 1 2 3 23 4 48
3 36 -1 48 -21 67 -13 12 -24 26 -24 31 0 8 54 52 63 52 3 0 7 -18 11 -40 7
-43 12 -46 37 -27 32 24 30 58 -5 106 -18 25 -36 54 -39 64 -9 25 -37 22 -30
-3z"/>
<path d="M2226 7193 c-11 -11 -6 -23 8 -23 8 0 17 4 20 9 7 10 -19 23 -28 14z"/>
<path d="M1334 7122 c-24 -16 -36 -58 -36 -133 0 -76 2 -82 35 -122 56 -69 70
-104 65 -163 -3 -33 -12 -62 -23 -74 -18 -20 -19 -43 -19 -336 -1 -349 -4
-334 66 -334 50 0 59 -20 51 -106 -8 -91 -15 -104 -59 -104 -28 0 -36 -5 -45
-27 -15 -39 -18 -458 -3 -473 12 -12 12 -13 57 45 53 68 71 210 37 290 -15 35
-1 103 28 131 15 16 17 55 20 432 3 399 2 416 -18 456 -11 23 -20 62 -20 87 0
38 6 53 36 87 40 47 74 130 74 180 0 45 -26 92 -50 92 -27 0 -52 -42 -48 -82
3 -31 5 -33 36 -30 22 2 32 -1 32 -11 0 -18 -32 -47 -51 -47 -17 0 -43 41 -54
85 l-7 30 -15 -22 c-18 -26 -61 -31 -69 -8 -3 8 6 29 20 46 14 17 26 43 26 57
-1 47 -35 75 -66 54z"/>
<path d="M1908 7119 c-21 -12 -23 -32 -5 -48 11 -8 16 -5 25 15 20 43 14 53
-20 33z"/>
<path d="M1563 7083 c9 -2 17 -12 17 -22 0 -18 27 -61 39 -61 13 0 53 62 45
70 -5 4 -34 10 -64 13 -30 3 -47 3 -37 0z"/>
<path d="M1757 7074 c-9 -10 4 -34 19 -34 8 0 14 9 14 20 0 19 -19 27 -33 14z"/>
<path d="M1842 7038 c-19 -19 -14 -63 9 -84 16 -14 20 -27 16 -51 -11 -67 21
-24 37 49 9 40 -17 97 -44 98 -4 0 -11 -5 -18 -12z"/>
<path d="M6523 7034 c-9 -23 13 -40 32 -24 8 7 15 19 15 26 0 19 -39 18 -47
-2z"/>
<path d="M1683 6994 c-11 -17 -18 -53 -21 -101 -3 -74 -3 -75 36 -126 33 -44
40 -61 45 -112 3 -46 0 -69 -14 -97 -18 -35 -19 -59 -16 -327 2 -158 8 -294
12 -301 11 -18 9 -111 -4 -142 -7 -20 -7 -29 1 -34 17 -11 46 32 63 90 23 83
24 117 2 161 -16 32 -21 67 -25 176 -5 154 11 253 53 328 30 52 30 56 4 116
-26 58 -29 183 -6 200 7 5 12 17 9 25 -4 13 -3 13 10 2 31 -25 24 4 -9 36 -26
27 -34 31 -38 18 -3 -9 -7 -23 -10 -31 -6 -19 -54 -20 -61 -1 -3 8 4 28 16 44
36 48 26 101 -17 102 -7 0 -20 -12 -30 -26z"/>
<path d="M1924 6893 c2 -10 10 -38 17 -63 7 -25 16 -49 21 -54 4 -6 8 -24 8
-42 l0 -32 30 26 c35 31 38 61 10 87 -11 10 -20 24 -20 30 0 7 -9 24 -21 39
-23 30 -53 36 -45 9z"/>
<path d="M1601 6835 c-5 -21 -29 -69 -52 -108 -40 -67 -41 -72 -28 -101 9 -22
15 -98 19 -252 4 -193 7 -225 23 -241 21 -24 22 -37 2 -53 -17 -14 -20 -72 -5
-101 6 -10 20 -19 32 -19 18 0 20 -4 15 -32 -6 -33 -6 -33 10 -10 8 12 21 22
29 22 7 0 18 8 23 18 5 9 12 156 14 326 5 299 6 309 27 331 25 27 20 60 -11
70 -13 4 -19 15 -19 35 0 16 -4 31 -9 34 -4 3 -14 26 -21 51 -18 65 -36 76
-49 30z"/>
<path d="M6510 6757 c0 -18 68 -82 77 -73 5 4 1 13 -7 19 -8 7 -23 24 -33 40
-18 29 -37 36 -37 14z"/>
<path d="M7340 6745 c0 -8 5 -15 10 -15 6 0 10 7 10 15 0 8 -4 15 -10 15 -5 0
-10 -7 -10 -15z"/>
<path d="M1860 6700 c0 -5 5 -10 10 -10 6 0 10 5 10 10 0 6 -4 10 -10 10 -5 0
-10 -4 -10 -10z"/>
<path d="M1870 6664 c0 -8 5 -12 10 -9 6 3 10 10 10 16 0 5 -4 9 -10 9 -5 0
-10 -7 -10 -16z"/>
<path d="M1969 6592 c-21 -18 -22 -23 -13 -63 6 -26 6 -60 1 -84 -4 -22 -10
-51 -13 -63 -4 -20 -7 -22 -19 -12 -8 7 -15 19 -15 26 0 28 -19 13 -29 -23
-21 -74 -8 -141 25 -131 5 1 19 -3 31 -10 17 -10 25 -9 42 6 19 16 20 30 23
189 1 95 0 175 -4 178 -3 3 -16 -3 -29 -13z"/>
<path d="M2030 6571 c0 -11 5 -23 10 -26 6 -3 10 -15 10 -25 0 -10 12 -32 26
-49 14 -17 22 -31 17 -31 -14 0 -36 -46 -29 -59 25 -40 64 77 46 138 -5 19
-17 42 -26 52 -23 25 -54 25 -54 0z"/>
<path d="M6680 6539 c0 -11 5 -17 10 -14 6 3 10 13 10 21 0 8 -4 14 -10 14 -5
0 -10 -9 -10 -21z"/>
<path d="M1806 6305 c-27 -106 -18 -285 14 -285 4 0 10 14 14 31 9 48 7 319
-3 319 -5 0 -16 -29 -25 -65z"/>
<path d="M2047 6223 c-10 -10 -8 -63 2 -63 14 0 41 29 41 45 0 7 -7 16 -16 19
-19 7 -19 7 -27 -1z"/>
<path d="M1596 5844 c-11 -29 -6 -44 15 -44 15 0 19 4 15 16 -3 9 -6 22 -6 30
0 19 -16 18 -24 -2z"/>
<path d="M1810 5751 c-14 -34 -7 -65 13 -59 15 6 21 52 9 74 -7 13 -11 11 -22
-15z"/>
<path d="M1574 5722 c-18 -11 -26 -49 -19 -83 6 -25 10 -29 28 -23 25 8 35 19
44 53 10 39 -23 73 -53 53z"/>
<path d="M1647 5624 c-3 -27 -13 -54 -25 -66 -19 -20 -19 -20 -42 12 -14 19
-25 28 -29 21 -12 -18 -12 -266 -1 -335 7 -46 7 -79 -1 -113 -11 -51 -23 -648
-13 -695 6 -32 20 -34 77 -14 70 24 69 16 65 282 -2 131 -2 293 -2 359 l2 121
-28 16 c-37 21 -60 67 -67 134 -7 63 9 89 61 102 l31 8 3 107 c2 87 0 107 -11
107 -10 0 -16 -16 -20 -46z"/>
<path d="M1709 5553 c-2 -131 1 -177 15 -191 11 -11 18 -3 40 44 27 56 56 153
56 185 0 28 -29 52 -46 38 -8 -6 -14 -18 -14 -26 0 -23 -25 -9 -28 15 -2 12
-8 22 -13 22 -5 0 -10 -39 -10 -87z"/>
<path d="M870 5403 c-14 -3 -29 -8 -34 -13 -4 -5 11 -4 35 1 67 15 66 24 -1
12z"/>
<path d="M1642 5388 c-15 -15 -16 -87 -2 -108 9 -13 12 -12 26 5 11 14 14 31
9 60 -7 47 -17 59 -33 43z"/>
<path d="M655 5360 c-8 -13 5 -13 25 0 13 8 13 10 -2 10 -9 0 -20 -4 -23 -10z"/>
<path d="M335 5300 c3 -5 8 -10 11 -10 2 0 4 5 4 10 0 6 -5 10 -11 10 -5 0 -7
-4 -4 -10z"/>
<path d="M1462 5232 c-12 -32 -35 -71 -52 -87 -16 -16 -30 -34 -30 -41 0 -7
-6 -14 -12 -16 -21 -7 -24 -398 -5 -437 13 -26 13 -35 1 -68 -14 -41 -18 -124
-7 -186 6 -38 7 -38 39 -32 19 3 49 12 67 20 l34 14 5 118 c10 214 4 766 -8
770 -6 2 -21 -23 -32 -55z m-22 -600 c0 -4 -11 -9 -26 -10 -14 -1 -23 2 -19 8
7 12 45 14 45 2z"/>
<path d="M64 5261 c-5 -5 -18 -11 -29 -14 l-20 -5 20 -1 c22 -1 52 15 44 23
-3 3 -10 2 -15 -3z"/>
<path d="M110 5260 c-13 -8 -13 -10 2 -10 9 0 20 5 23 10 8 13 -5 13 -25 0z"/>
<path d="M1165 5141 c-3 -5 0 -30 7 -55 9 -35 9 -51 0 -71 -15 -31 -2 -55 29
-55 10 0 25 -10 33 -22 14 -22 16 -92 14 -516 -1 -94 8 -112 47 -94 l25 12 0
369 c0 253 -3 372 -11 376 -6 4 -23 8 -39 9 -16 1 -41 14 -56 29 -28 29 -39
33 -49 18z"/>
<path d="M596 4824 c-4 -10 -1 -14 6 -12 15 5 23 28 10 28 -5 0 -13 -7 -16
-16z"/>
<path d="M1660 4130 c0 -5 5 -10 10 -10 6 0 10 5 10 10 0 6 -4 10 -10 10 -5 0
-10 -4 -10 -10z"/>
<path d="M1486 4061 c-4 -7 -5 -15 -2 -18 9 -9 19 4 14 18 -4 11 -6 11 -12 0z"/>
<path d="M1357 4054 c-13 -13 -7 -54 8 -61 25 -9 30 5 14 38 -8 17 -18 27 -22
23z"/>
<path d="M3446 3895 c11 -29 184 -63 434 -85 63 -6 133 -15 155 -20 53 -13 55
-12 55 4 0 19 -26 24 -196 36 -202 15 -402 48 -428 71 -16 14 -26 10 -20 -6z"/>
<path d="M236 3345 c4 -8 10 -12 15 -9 11 6 2 24 -11 24 -5 0 -7 -7 -4 -15z"/>
<path d="M272 3338 c3 -7 15 -14 29 -16 24 -4 24 -3 4 12 -24 19 -38 20 -33 4z"/>
<path d="M175 3320 c-3 -5 1 -10 9 -10 9 0 16 5 16 10 0 6 -4 10 -9 10 -6 0
-13 -4 -16 -10z"/>
<path d="M200 3278 c0 -19 2 -20 10 -8 13 19 13 30 0 30 -5 0 -10 -10 -10 -22z"/>
<path d="M240 3293 c0 -14 19 -38 25 -32 8 8 -5 39 -16 39 -5 0 -9 -3 -9 -7z"/>
<path d="M3 3245 c-1 -19 3 -38 8 -41 5 -3 9 4 9 16 0 11 6 20 13 19 29 -4 57
2 57 12 0 6 -9 8 -20 4 -11 -4 -20 -2 -20 4 0 6 -7 8 -16 4 -9 -3 -19 -1 -23
5 -4 7 -7 -4 -8 -23z"/>
<path d="M70 2735 c0 -8 2 -15 4 -15 2 0 6 7 10 15 3 8 1 15 -4 15 -6 0 -10
-7 -10 -15z"/>
<path d="M530 2741 c0 -6 5 -13 10 -16 6 -3 10 1 10 9 0 9 -4 16 -10 16 -5 0
-10 -4 -10 -9z"/>
<path d="M370 2729 c0 -5 5 -7 10 -4 6 3 10 8 10 11 0 2 -4 4 -10 4 -5 0 -10
-5 -10 -11z"/>
<path d="M170 2640 c0 -5 5 -10 10 -10 6 0 10 5 10 10 0 6 -4 10 -10 10 -5 0
-10 -4 -10 -10z"/>
<path d="M5096 2634 c-11 -8 -16 -14 -10 -14 13 0 39 18 34 24 -3 2 -14 -2
-24 -10z"/>
<path d="M40 2630 c0 -5 -6 -10 -14 -10 -8 0 -17 -4 -20 -9 -4 -5 10 -4 29 1
19 6 32 15 29 20 -7 11 -24 10 -24 -2z"/>
<path d="M5035 2608 c-46 -15 -135 -55 -310 -141 -267 -130 -296 -143 -378
-157 -63 -12 -147 -6 -147 11 0 18 -89 10 -109 -10 -20 -20 -20 -20 -26 0 -8
24 -25 15 -25 -13 0 -16 -3 -18 -13 -9 -32 26 -36 -27 -6 -83 11 -21 38 -60
60 -88 34 -43 39 -56 39 -101 0 -32 -12 -86 -30 -137 -25 -73 -29 -100 -30
-191 0 -58 -3 -109 -6 -112 -12 -11 -59 23 -99 73 -22 27 -45 49 -51 50 -5 0
-19 8 -30 18 -138 124 -183 162 -188 162 -3 0 -6 -7 -6 -15 0 -15 10 -26 138
-158 100 -104 182 -208 182 -232 0 -12 4 -25 10 -31 5 -5 11 -47 14 -93 l4
-83 -28 5 c-15 4 -48 20 -73 37 -42 28 -87 40 -87 23 0 -12 29 -55 79 -118 44
-55 45 -58 42 -123 -1 -37 -3 -78 -5 -92 -2 -14 -4 -31 -4 -39 -2 -10 -11 -11
-39 -6 -56 10 -96 41 -252 196 -74 73 -138 121 -222 164 -10 5 -19 13 -19 17
0 10 -70 51 -76 45 -3 -3 -3 -18 0 -34 8 -36 158 -185 266 -264 19 -15 58 -48
85 -74 28 -26 69 -63 92 -82 44 -36 73 -82 73 -115 0 -10 -4 -18 -10 -18 -5 0
-10 -7 -10 -15 0 -8 -7 -15 -16 -15 -11 0 -13 -6 -9 -19 9 -29 -12 -35 -41
-12 -15 12 -32 21 -39 21 -10 0 -32 15 -70 48 -16 15 -88 97 -112 128 -12 16
-33 43 -47 59 -43 50 -126 174 -126 188 0 8 -6 27 -14 43 -8 16 -20 52 -27 79
-19 80 -61 189 -76 198 -7 4 -13 17 -13 27 0 13 -5 18 -15 14 -10 -4 -15 0
-15 10 0 9 -9 24 -20 33 -11 10 -20 23 -20 29 0 6 -6 17 -14 23 -8 7 -17 26
-20 44 -3 18 -7 37 -8 42 -1 6 -16 21 -32 35 -16 13 -35 38 -43 55 -7 16 -38
77 -68 135 -30 58 -55 112 -55 120 0 9 -11 32 -25 52 -14 20 -25 39 -25 42 0
4 -9 15 -20 26 l-20 20 0 -35 c0 -20 11 -57 24 -83 13 -26 27 -63 31 -82 7
-35 22 -71 96 -227 22 -46 39 -85 39 -89 0 -4 20 -47 44 -98 74 -155 78 -165
73 -180 -3 -8 6 -32 21 -53 27 -37 90 -157 220 -416 36 -73 69 -126 75 -124
17 6 67 -31 67 -49 0 -8 7 -17 15 -20 8 -4 15 -12 15 -20 0 -7 6 -17 13 -21
18 -12 27 -29 135 -253 43 -89 69 -199 58 -244 -5 -20 -12 -26 -34 -26 -22 0
-36 10 -61 45 -18 25 -36 45 -41 45 -5 0 -30 35 -56 78 -26 42 -70 113 -99
157 -54 83 -108 175 -137 235 -92 192 -133 283 -188 415 -23 55 -45 105 -50
110 -4 6 -15 30 -24 55 -10 25 -24 61 -33 80 -8 19 -19 44 -24 55 -4 11 -29
72 -54 135 -25 63 -54 133 -64 155 -10 22 -28 72 -40 110 -12 39 -26 79 -31
90 -29 62 -60 161 -54 177 3 10 1 18 -5 18 -5 0 -11 -8 -13 -17 -2 -10 -10 11
-16 47 -18 93 -32 130 -47 130 -7 0 -15 10 -19 23 -9 33 -7 44 4 27 8 -12 10
-11 10 7 0 12 -4 25 -10 28 -5 3 -10 13 -10 22 0 9 -7 21 -15 27 -8 6 -19 40
-24 75 -11 67 -18 82 -29 65 -4 -5 -24 -18 -44 -27 -21 -10 -58 -36 -83 -57
-26 -22 -55 -40 -65 -40 -11 0 -25 -10 -31 -22 -15 -28 -42 -52 -99 -85 -25
-14 -59 -39 -75 -55 -29 -26 -118 -54 -137 -42 -4 3 -15 -7 -24 -22 -13 -19
-14 -28 -5 -33 19 -12 1 -40 -38 -61 -20 -10 -51 -32 -69 -49 -18 -17 -37 -31
-42 -31 -5 0 -16 -13 -25 -30 -13 -25 -16 -104 -20 -522 -2 -271 -4 -499 -4
-505 0 -7 0 -23 0 -35 1 -13 -1 -155 -3 -317 l-4 -293 -32 -27 c-18 -14 -32
-31 -32 -38 0 -6 -9 -15 -20 -18 -11 -3 -20 -13 -20 -20 0 -8 -18 -32 -40 -54
-22 -22 -40 -46 -40 -55 0 -10 -6 -13 -15 -10 -11 5 -13 2 -9 -10 8 -20 -9
-21 -26 -1 -16 19 -28 11 -26 -17 1 -15 7 -23 19 -22 14 2 16 -3 11 -20 -3
-11 -12 -26 -20 -32 -21 -17 -17 -24 16 -24 19 0 30 5 31 15 2 25 4 29 23 62
11 17 30 37 43 44 13 7 23 21 23 31 0 12 8 19 23 20 12 0 28 2 35 2 7 1 17 7
21 15 5 7 14 10 20 7 18 -12 13 -55 -9 -68 -11 -7 -20 -20 -20 -28 0 -16 -60
-69 -95 -86 -13 -6 288 -10 814 -12 459 -1 836 0 838 2 5 4 -40 90 -49 94 -5
2 -8 13 -8 23 0 11 -9 37 -20 57 -33 62 -91 208 -110 277 -11 39 -31 96 -41
116 -4 9 -11 33 -14 52 -4 20 -13 42 -21 48 -10 8 -12 22 -8 45 4 20 2 34 -3
34 -9 0 -43 89 -43 112 0 6 -6 24 -14 41 -17 38 -27 83 -27 116 1 13 -3 29 -9
36 -5 6 -11 29 -13 51 -2 23 -8 38 -15 36 -7 -1 -13 13 -14 35 -3 71 -17 135
-28 128 -9 -6 -23 25 -15 33 3 3 5 -1 5 -8 0 -10 3 -11 10 -4 7 7 6 21 -3 42
-7 18 -16 30 -19 27 -3 -3 -4 16 -3 42 1 30 -3 54 -12 65 -21 23 -13 37 15 27
14 -6 22 -17 22 -33 0 -14 5 -28 11 -31 13 -9 89 -179 104 -235 0 -3 11 -21
23 -40 12 -19 29 -55 38 -80 9 -25 22 -57 30 -72 8 -14 14 -33 14 -43 0 -9 9
-33 19 -53 11 -20 27 -55 37 -77 22 -53 149 -318 179 -375 13 -25 47 -92 76
-150 75 -155 99 -202 115 -230 7 -14 14 -35 14 -47 0 -13 4 -23 9 -23 5 0 13
-9 16 -20 6 -19 15 -20 303 -20 230 0 293 3 284 12 -7 7 -12 26 -12 42 0 22
-3 27 -9 17 -5 -8 -9 15 -8 60 0 41 -5 84 -12 96 -22 42 -39 314 -22 353 8 19
9 10 4 -44 -5 -56 -4 -68 8 -64 10 4 13 19 11 52 -2 27 1 46 7 46 6 0 11 -6
11 -14 0 -14 27 -42 35 -35 2 3 -7 36 -20 74 -47 137 -75 271 -76 370 -1 78
13 125 36 125 9 0 16 -10 16 -27 2 -24 2 -25 6 -5 5 26 23 30 23 4 0 -10 5
-23 11 -29 6 -6 16 -20 23 -31 26 -45 64 -98 80 -111 23 -19 33 -5 13 17 -10
10 -17 22 -17 25 0 4 -18 36 -40 72 -22 36 -40 70 -40 75 0 22 -51 91 -62 84
-6 -4 -8 -3 -4 4 3 6 -3 25 -13 44 -11 18 -29 59 -41 91 -21 56 -21 60 -5 105
9 26 22 68 28 93 24 94 76 113 305 113 67 -1 122 3 122 7 0 22 -331 56 -399
40 -44 -10 -56 4 -26 29 19 16 19 43 0 81 -17 32 -13 44 21 71 12 10 24 34 28
58 8 48 44 89 101 112 61 26 186 42 262 34 96 -10 232 -16 208 -10 -11 3 -33
11 -50 19 -16 7 -73 20 -125 28 -129 20 -287 4 -337 -36 -7 -5 -13 -6 -13 -3
0 4 -10 0 -22 -8 -12 -9 -25 -16 -28 -16 -3 0 -3 26 0 58 7 54 -2 78 -22 66
-4 -3 -18 1 -30 8 -26 14 -31 11 102 38 79 15 208 65 303 116 45 25 96 50 112
56 26 10 155 75 282 143 23 13 49 30 58 38 8 9 33 26 55 38 22 13 40 26 40 31
0 4 -1 8 -2 7 -2 0 -16 -5 -33 -11z m-2328 -380 c-3 -8 -6 -5 -6 6 -1 11 2 17
5 13 3 -3 4 -12 1 -19z m-567 3 c0 -12 -20 -25 -27 -18 -7 7 6 27 18 27 5 0 9
-4 9 -9z m466 -12 c8 -14 -11 -33 -25 -25 -11 7 -4 36 9 36 5 0 12 -5 16 -11z
m-57 -33 c8 -10 9 -16 1 -21 -5 -3 -10 -11 -10 -17 0 -10 32 -7 78 7 19 6 22
4 22 -18 0 -19 -10 -31 -37 -48 -21 -13 -56 -38 -77 -56 -43 -36 -62 -42 -52
-17 3 8 -1 22 -9 30 -11 11 -13 27 -8 62 9 72 61 116 92 78z m178 -68 c-3 -7
-5 -2 -5 12 0 14 2 19 5 13 2 -7 2 -19 0 -25z m-427 -33 c-7 -8 -19 -15 -28
-15 -11 0 -9 5 8 20 26 22 40 19 20 -5z m102 -20 c3 -13 1 -22 -3 -19 -9 5
-13 44 -5 44 2 0 6 -11 8 -25z m352 -20 c3 -8 1 -15 -4 -15 -6 0 -10 7 -10 15
0 8 2 15 4 15 2 0 6 -7 10 -15z m-384 -35 c0 -5 -5 -10 -11 -10 -5 0 -7 5 -4
10 3 6 8 10 11 10 2 0 4 -4 4 -10z m30 -66 c0 -14 -176 -174 -192 -174 -23 0
-23 1 7 36 14 16 25 32 25 37 0 4 6 7 13 7 17 0 67 55 67 74 0 8 8 17 18 19
26 7 62 8 62 1z m-147 -49 c-7 -21 -13 -19 -13 6 0 11 4 18 10 14 5 -3 7 -12
3 -20z m-93 -145 c0 -21 -31 -57 -75 -89 -38 -27 -50 -31 -72 -24 -25 9 -25
10 -9 24 10 7 29 25 43 38 51 46 113 74 113 51z m295 -89 c3 -5 1 -13 -5 -16
-15 -9 -43 3 -35 15 8 13 32 13 40 1z m-555 -141 c0 -5 -4 -10 -10 -10 -5 0
-10 5 -10 10 0 6 5 10 10 10 6 0 10 -4 10 -10z m40 -630 c0 -5 -2 -10 -4 -10
-3 0 -8 5 -11 10 -3 6 -1 10 4 10 6 0 11 -4 11 -10z m-75 -619 c-7 -23 -25
-29 -25 -8 0 14 21 39 28 33 2 -3 1 -14 -3 -25z m-28 -53 c-3 -8 -6 -5 -6 6
-1 11 2 17 5 13 3 -3 4 -12 1 -19z"/>
<path d="M2486 2111 c-4 -5 -2 -12 3 -15 5 -4 12 -2 15 3 4 5 2 12 -3 15 -5 4
-12 2 -15 -3z"/>
<path d="M38 2579 c-10 -5 -18 -15 -18 -21 0 -6 6 -5 16 3 13 10 17 10 25 -2
7 -11 9 -9 9 9 0 24 -6 27 -32 11z"/>
<path d="M4041 2466 c-1 -26 2 -37 9 -30 6 6 6 21 1 39 -9 30 -9 30 -10 -9z"/>
<path d="M638 2453 c6 -2 18 -2 25 0 6 3 1 5 -13 5 -14 0 -19 -2 -12 -5z"/>
<path d="M4070 2445 c0 -8 4 -15 10 -15 5 0 7 7 4 15 -4 8 -8 15 -10 15 -2 0
-4 -7 -4 -15z"/>
<path d="M166 2061 c-5 -7 -3 -18 3 -24 14 -14 20 -6 11 17 -5 15 -9 16 -14 7z"/>
<path d="M95 2050 c-3 -5 -1 -10 4 -10 6 0 11 5 11 10 0 6 -2 10 -4 10 -3 0
-8 -4 -11 -10z"/>
<path d="M140 2030 c0 -5 5 -10 10 -10 6 0 10 5 10 10 0 6 -4 10 -10 10 -5 0
-10 -4 -10 -10z"/>
<path d="M1 1981 c-1 -32 2 -42 10 -34 7 7 7 21 1 44 l-10 34 -1 -44z"/>
<path d="M100 1985 c0 -8 7 -15 15 -15 8 0 15 7 15 15 0 8 -7 15 -15 15 -8 0
-15 -7 -15 -15z"/>
<path d="M65 1952 c-5 -4 -10 -21 -10 -39 0 -39 10 -31 18 15 7 35 7 35 -8 24z"/>
<path d="M16 1905 c-18 -27 -14 -47 7 -39 10 3 21 64 12 64 -2 0 -10 -11 -19
-25z"/>
<path d="M515 1920 c3 -5 13 -10 21 -10 8 0 14 5 14 10 0 6 -9 10 -21 10 -11
0 -17 -4 -14 -10z"/>
<path d="M45 1850 c3 -5 8 -10 11 -10 2 0 4 5 4 10 0 6 -5 10 -11 10 -5 0 -7
-4 -4 -10z"/>
<path d="M95 1825 c-16 -13 -28 -25 -25 -26 3 -1 15 -3 26 -4 16 -2 20 2 16
17 -3 14 0 17 12 12 12 -5 15 -2 10 10 -8 20 -3 21 -39 -9z"/>
<path d="M162 1829 c2 -6 8 -10 13 -10 5 0 11 4 13 10 2 6 -4 11 -13 11 -9 0
-15 -5 -13 -11z"/>
<path d="M6 1776 c-4 -20 -3 -42 1 -49 5 -7 10 3 14 28 4 22 4 44 -1 48 -4 5
-11 -8 -14 -27z"/>
<path d="M40 1762 c0 -36 4 -49 14 -49 11 0 12 5 6 18 -6 9 -7 31 -4 48 4 20
2 31 -5 31 -7 0 -11 -19 -11 -48z"/>
<path d="M1 1684 c0 -11 3 -14 6 -6 3 7 2 16 -1 19 -3 4 -6 -2 -5 -13z"/>
<path d="M315 1690 c-3 -5 -1 -10 4 -10 6 0 11 5 11 10 0 6 -2 10 -4 10 -3 0
-8 -4 -11 -10z"/>
<path d="M200 1564 c0 -8 5 -12 10 -9 6 4 8 11 5 16 -9 14 -15 11 -15 -7z"/>
<path d="M30 1559 c0 -5 5 -7 10 -4 6 3 10 8 10 11 0 2 -4 4 -10 4 -5 0 -10
-5 -10 -11z"/>
<path d="M4126 1434 c-20 -19 -20 -30 -2 -37 10 -4 15 4 18 24 5 34 5 34 -16
13z"/>
<path d="M1 1404 c0 -11 3 -14 6 -6 3 7 2 16 -1 19 -3 4 -6 -2 -5 -13z"/>
<path d="M170 1335 c0 -8 5 -15 10 -15 6 0 10 7 10 15 0 8 -4 15 -10 15 -5 0
-10 -7 -10 -15z"/>
<path d="M1731 1294 c0 -11 3 -14 6 -6 3 7 2 16 -1 19 -3 4 -6 -2 -5 -13z"/>
<path d="M84 1269 c-3 -6 -1 -16 5 -22 8 -8 11 -5 11 11 0 24 -5 28 -16 11z"/>
<path d="M4141 1064 c0 -11 3 -14 6 -6 3 7 2 16 -1 19 -3 4 -6 -2 -5 -13z"/>
<path d="M181 992 c-10 -19 -4 -62 8 -62 4 0 7 18 7 40 0 45 -1 47 -15 22z"/>
<path d="M22 770 c0 -14 2 -19 5 -12 2 6 2 18 0 25 -3 6 -5 1 -5 -13z"/>
<path d="M67 763 c-2 -5 -1 -17 3 -27 6 -19 7 -19 12 2 6 21 -6 40 -15 25z"/>
<path d="M35 730 c3 -5 8 -10 11 -10 2 0 4 5 4 10 0 6 -5 10 -11 10 -5 0 -7
-4 -4 -10z"/>
<path d="M70 680 c-8 -5 -11 -12 -7 -16 4 -4 13 -2 19 4 15 15 7 24 -12 12z"/>
<path d="M160 549 c0 -5 5 -7 10 -4 6 3 10 8 10 11 0 2 -4 4 -10 4 -5 0 -10
-5 -10 -11z"/>
<path d="M210 550 c0 -5 5 -10 11 -10 5 0 7 5 4 10 -3 6 -8 10 -11 10 -2 0 -4
-4 -4 -10z"/>
<path d="M225 470 c-3 -5 -1 -10 4 -10 6 0 11 5 11 10 0 6 -2 10 -4 10 -3 0
-8 -4 -11 -10z"/>
<path d="M4131 433 c1 -17 3 -21 6 -10 2 9 9 17 14 17 6 0 7 5 4 10 -12 19
-25 10 -24 -17z"/>
<path d="M4149 388 c-2 -18 -1 -49 2 -68 l6 -35 2 33 c0 17 5 32 10 32 6 0 6
12 1 31 -13 44 -17 45 -21 7z"/>
<path d="M331 324 c0 -11 3 -14 6 -6 3 7 2 16 -1 19 -3 4 -6 -2 -5 -13z"/>
<path d="M78 71 c-4 -46 0 -63 13 -55 12 7 12 94 0 94 -5 0 -11 -18 -13 -39z"/>
<path d="M181 54 c0 -11 3 -14 6 -6 3 7 2 16 -1 19 -3 4 -6 -2 -5 -13z"/>
<path d="M1550 40 c0 -5 7 -7 15 -4 8 4 15 8 15 10 0 2 -7 4 -15 4 -8 0 -15
-4 -15 -10z"/>
<path d="M0 20 c0 -11 7 -20 15 -20 17 0 18 2 9 24 -9 23 -24 20 -24 -4z"/>
<path d="M500 10 c0 -5 5 -10 11 -10 5 0 7 5 4 10 -3 6 -8 10 -11 10 -2 0 -4
-4 -4 -10z"/>
</g>
</svg>
